<?xml version='1.0' encoding='UTF-8' standalone='no'?>
<!-- Created with Fritzing (https://fritzing.org/) -->
<svg xmlns="http://www.w3.org/2000/svg" baseProfile="tiny" height="2.3622in" version="1.2" viewBox="0 0 113.386 170.079" width="1.5748in" x="0in"  xmlns:svg="http://www.w3.org/2000/svg" y="0in">
 <g transform="matrix(-1, 0, 0, 1, 113.386, 0)">
  <g partID="57880">
   <g transform="translate(113.386,0)">
    <g transform="matrix(0,1,-1,0,0,0)">
     <g id="board" >
      <rect fill="none" fill-opacity="0.5" height="112.81" id="boardoutline" stroke="black" stroke-width="0.5" width="169.503" x="0.288"  y="0.288"/>
     </g>
    </g>
   </g>
  </g>
  <g partID="855364310">
   <g transform="translate(2.16,2.16)">
    <g id="groundplane" >
     <path d="M103.095,0.0024L103.176,0.0360001L103.215,0.0792001L103.239,0.132L103.246,0.1608L103.241,0.2208L103.219,0.2736L103.186,0.3144L103.087,0.412801L102.742,0.832801L102.66,0.955201L102.375,1.4928L102.168,2.1504L102.094,2.8704L102.163,3.57841L102.185,3.66241L102.37,4.24801L102.403,4.32241L102.696,4.85521L102.742,4.92001L103.128,5.38321L103.186,5.43841L103.606,5.78401L103.721,5.86081L104.266,6.15121L104.933,6.36001L105.636,6.43201L106.363,6.36001L107.023,6.15601L107.112,6.11521L107.631,5.82961L107.705,5.77681L108.115,5.43841L108.214,5.34001L108.559,4.92001L108.641,4.79761L108.744,4.61281L108.787,4.57201L108.84,4.54801L108.898,4.54321L108.955,4.55761L108.982,4.56961L109.025,4.61041L109.054,4.66081L109.063,4.68961L109.063,160.829L109.03,160.911L108.987,160.949L108.934,160.973L108.905,160.98L108.845,160.975L108.792,160.954L108.747,160.915L108.605,160.663L108.552,160.591L108.214,160.181L108.115,160.085L107.643,159.696L107.58,159.658L107.045,159.37L106.966,159.341L106.375,159.163L105.665,159.089L104.95,159.159L104.851,159.183L104.275,159.363L104.199,159.399L103.663,159.694L103.135,160.128L102.742,160.601L102.667,160.714L102.379,161.247L102.351,161.326L102.166,161.926L102.094,162.639L102.163,163.347L102.185,163.431L102.37,164.016L102.403,164.091L102.696,164.623L102.742,164.688L103.128,165.151L103.186,165.207L103.469,165.439L103.507,165.483L103.529,165.538L103.534,165.595L103.517,165.653L103.486,165.701L103.44,165.737L103.383,165.756L5.89441,165.756L5.81281,165.723L5.77441,165.679L5.75041,165.627L5.74321,165.598L5.74801,165.538L5.76961,165.485L5.80801,165.439L6.09121,165.207L6.18961,165.108L6.53521,164.688L6.61681,164.566L6.90242,164.028L6.93122,163.949L7.10882,163.371L7.18322,162.648L7.10882,161.926L6.90482,161.266L6.87122,161.194L6.58081,160.663L6.52801,160.591L6.18961,160.181L6.09121,160.085L5.61841,159.696L5.55601,159.658L5.02081,159.37L4.94161,159.341L4.35121,159.163L3.64081,159.089L2.92561,159.159L2.82721,159.183L2.2512,159.363L2.1744,159.399L1.6392,159.694L1.1112,160.128L0.717602,160.601L0.643201,160.714L0.336001,161.292L0.300001,161.338L0.276001,161.357L0.2208,161.379L0.1632,161.383L0.1344,161.379L0.0816002,161.355L0.0384001,161.314L0.00960002,161.261L0,161.203L0.00240001,4.28881L0.0360001,4.20721L0.0792002,4.16881L0.132,4.14481L0.1608,4.13761L0.2208,4.14241L0.273601,4.16401L0.319201,4.20241L0.379201,4.32241L0.672001,4.85521L0.717602,4.92001L1.104,5.38321L1.1616,5.43841L1.5816,5.78401L1.6968,5.86081L2.2416,6.15121L2.90881,6.36001L3.61201,6.43201L4.33921,6.36001L4.99921,6.15601L5.08801,6.11521L5.60641,5.82961L5.68081,5.77681L6.09121,5.43841L6.18961,5.34001L6.53521,4.92001L6.61681,4.79761L6.90242,4.26001L6.93122,4.18081L7.10882,3.60241L7.18322,2.88L7.11122,2.1624L6.90722,1.5048L6.86402,1.4112L6.58081,0.897601L6.52801,0.823201L6.18961,0.412801L6.06481,0.2856L6.03841,0.2328L6.03121,0.1752L6.03361,0.144L6.05521,0.0912001L6.09121,0.0456001L6.11521,0.0264L6.17041,0.00480001L6.21121,0ZM94.1282,154.839L93.4922,154.911L93.4202,154.927L92.8706,155.107L92.3066,155.407L91.8266,155.794L91.7642,155.863L91.4186,156.293L91.1114,156.871L90.9194,157.476L90.845,158.124L90.8498,158.227L90.917,158.794L90.9362,158.871L91.1114,159.42L91.1426,159.487L91.4138,159.989L91.8026,160.471L91.8698,160.534L92.2922,160.872L92.3594,160.913L92.861,161.177L92.9258,161.203L93.4778,161.376L93.5642,161.391L94.133,161.451L94.2506,161.443L94.7978,161.383L94.8818,161.362L95.4314,161.182L95.9954,160.882L96.4802,160.493L96.5426,160.426L96.8906,159.987L97.1834,159.435L97.2122,159.363L97.3826,158.813L97.3994,158.719L97.4594,158.167L97.4546,158.064L97.3874,157.491L97.3682,157.414L97.1882,156.864L96.8882,156.3L96.5042,155.82L96.4322,155.753L96.0074,155.415L95.441,155.112L95.3762,155.086L94.8242,154.913L94.7378,154.899L94.1714,154.839ZM29.3713,154.839L28.7497,154.906L28.6657,154.927L28.1161,155.107L27.5521,155.407L27.4825,155.458L27.0697,155.794L27.0049,155.863L26.6569,156.303L26.3641,156.855L26.3329,156.931L26.1649,157.476L26.1481,157.57L26.0881,158.124L26.0929,158.227L26.1601,158.799L26.1793,158.873L26.3593,159.425L26.3881,159.487L26.6593,159.989L27.0433,160.469L27.1225,160.541L27.5353,160.872L27.6025,160.913L28.1065,161.177L28.1713,161.203L28.7233,161.376L28.8097,161.391L29.3761,161.451L29.4937,161.443L30.0553,161.379L30.1273,161.362L30.6769,161.182L31.2409,160.882L31.7209,160.495L31.7833,160.426L32.1289,159.996L32.4337,159.425L32.6281,158.813L32.7025,158.167L32.6977,158.064L32.6305,157.495L32.6089,157.411L32.4361,156.869L32.4049,156.802L32.1337,156.3L31.7449,155.818L31.6777,155.755L31.2553,155.417L31.1881,155.376L30.6865,155.112L30.6217,155.086L30.0697,154.913L29.9833,154.899L29.4145,154.839ZM94.0706,147.612L93.497,147.679L93.4226,147.699L92.8706,147.879L92.3594,148.147L92.2442,148.224L91.8266,148.565L91.7642,148.635L91.4186,149.064L91.1114,149.643L90.9194,150.247L90.845,150.893L90.8498,150.996L90.917,151.565L90.9362,151.642L91.1114,152.191L91.1426,152.259L91.4138,152.76L91.4594,152.823L91.7978,153.235L91.8698,153.303L92.2898,153.641L92.3594,153.684L92.861,153.948L92.9306,153.975L93.4826,154.147L94.1306,154.222L94.2338,154.217L94.8002,154.15L94.8842,154.128L95.4314,153.953L95.4938,153.924L95.9954,153.653L96.4826,153.259L96.5402,153.197L96.8834,152.767L97.1834,152.206L97.2146,152.129L97.3826,151.584L97.3994,151.491L97.4594,150.936L97.4546,150.833L97.3874,150.262L97.3682,150.185L97.1882,149.635L96.8882,149.071L96.5042,148.591L96.4322,148.524L96.0074,148.186L95.441,147.883L95.3762,147.857L94.8194,147.684L94.7306,147.667L94.1738,147.607ZM29.3137,147.612L28.7425,147.679L28.6681,147.699L28.1161,147.879L27.5521,148.179L27.4825,148.229L27.0697,148.565L27.0049,148.635L26.6569,149.074L26.3641,149.626L26.3329,149.703L26.1649,150.247L26.1481,150.341L26.0881,150.893L26.0929,150.996L26.1601,151.57L26.1793,151.644L26.3593,152.196L26.3881,152.259L26.6593,152.76L27.0385,153.233L27.1153,153.303L27.5329,153.641L27.6025,153.684L28.1065,153.948L28.1761,153.975L28.7281,154.147L29.3737,154.222L29.4769,154.217L30.0457,154.15L30.1297,154.128L30.6769,153.953L30.7393,153.924L31.2409,153.653L31.3033,153.607L31.7233,153.262L31.7833,153.197L32.1241,152.775L32.1649,152.707L32.4337,152.196L32.6281,151.584L32.7025,150.936L32.6977,150.833L32.6305,150.267L32.6089,150.183L32.4361,149.64L32.4049,149.573L32.1337,149.071L31.7449,148.589L31.6777,148.527L31.2553,148.188L31.1881,148.147L30.6865,147.883L30.6217,147.857L30.0649,147.684L29.9761,147.667L29.4169,147.607ZM94.0706,140.383L93.497,140.451L93.4226,140.47L92.8706,140.65L92.3066,140.947L92.2442,140.993L91.8242,141.339L91.7642,141.403L91.4258,141.823L91.3826,141.893L91.1114,142.414L90.9194,143.019L90.845,143.664L90.8498,143.767L90.917,144.334L90.9362,144.411L91.1066,144.948L91.1426,145.027L91.4138,145.529L91.4594,145.594L91.7978,146.007L91.8698,146.074L92.2922,146.412L92.3594,146.453L92.861,146.717L92.9258,146.743L93.4826,146.916L93.5714,146.933L94.1306,146.993L94.2338,146.988L94.805,146.921L94.8794,146.902L95.4314,146.722L95.9954,146.422L96.4802,146.033L96.5522,145.954L96.8834,145.539L97.1834,144.975L97.2146,144.898L97.3826,144.353L97.3994,144.259L97.4594,143.707L97.4546,143.604L97.3874,143.033L97.3682,142.956L97.1882,142.407L96.8882,141.843L96.8378,141.773L96.5018,141.36L96.4322,141.298L96.0098,140.957L95.4314,140.65L94.8194,140.455L94.7306,140.439L94.1738,140.379ZM29.3137,140.383L28.7425,140.451L28.6681,140.47L28.1161,140.65L27.5545,140.945L27.4873,140.993L27.0673,141.339L27.0073,141.403L26.6641,141.833L26.3641,142.397L26.3329,142.474L26.1649,143.019L26.1481,143.112L26.0881,143.664L26.0929,143.767L26.1601,144.339L26.1793,144.413L26.3593,144.965L26.3881,145.027L26.6593,145.529L26.7049,145.594L27.0385,146.004L27.1153,146.074L27.5353,146.412L27.5905,146.446L28.1065,146.717L28.1713,146.743L28.7281,146.916L28.8169,146.933L29.3737,146.993L29.4769,146.988L30.0505,146.921L30.1249,146.902L30.6769,146.722L31.2409,146.422L31.7209,146.035L31.7833,145.966L32.1241,145.546L32.1649,145.479L32.4337,144.965L32.6281,144.353L32.7025,143.707L32.6977,143.604L32.6305,143.038L32.6089,142.954L32.4361,142.411L32.4049,142.344L32.1337,141.843L32.0833,141.773L31.7425,141.358L31.6777,141.298L31.2385,140.947L30.6769,140.65L30.0649,140.455L29.9761,140.439L29.4169,140.379ZM7.20002,135.096L7.11602,135.118L6.57361,135.295L6.02641,135.583L5.95921,135.631L5.55361,135.963L5.48881,136.032L5.15281,136.459L4.86001,137.011L4.68241,137.551L4.65361,137.688L4.59121,138.243L4.59601,138.351L4.66321,138.9L4.68241,138.979L4.86001,139.519L5.15521,140.079L5.52721,140.542L5.60881,140.616L6.00721,140.935L6.57121,141.235L7.17122,141.43L7.25282,141.444L7.80722,141.507L7.91522,141.502L8.46722,141.435L8.54642,141.415L9.08642,141.238L9.64802,140.94L10.1136,140.566L10.176,140.499L10.512,140.071L10.8048,139.519L10.9896,138.955L11.0136,138.821L11.0712,138.288L11.0664,138.187L11.0016,137.631L10.9824,137.551L10.8,136.999L10.5048,136.445L10.1376,135.989L10.0656,135.922L9.64562,135.591L9.08642,135.293L8.52962,135.111L8.39282,135.084L7.85282,135.027ZM29.3713,133.224L28.7497,133.291L28.6657,133.313L28.1161,133.493L27.5521,133.793L27.4825,133.843L27.0697,134.179L27.0049,134.249L26.6569,134.688L26.3641,135.24L26.3329,135.317L26.1649,135.862L26.1481,135.955L26.0881,136.51L26.0929,136.613L26.1601,137.184L26.1793,137.259L26.3593,137.811L26.3881,137.873L26.6593,138.375L27.0433,138.855L27.1225,138.927L27.5353,139.258L27.6025,139.299L28.1065,139.563L28.1713,139.589L28.7233,139.762L28.8097,139.776L29.3761,139.836L29.4937,139.829L30.0553,139.764L30.1273,139.747L30.6769,139.567L31.2409,139.267L31.7209,138.881L31.7833,138.811L32.1289,138.382L32.4337,137.811L32.6281,137.199L32.7025,136.553L32.6977,136.45L32.6305,135.881L32.6065,135.79L32.4361,135.255L32.4049,135.187L32.1337,134.686L31.7449,134.203L31.6777,134.141L31.2553,133.803L31.1881,133.762L30.6865,133.498L30.6217,133.471L30.0697,133.299L29.9833,133.284L29.4145,133.224ZM94.1282,133.224L93.4922,133.296L93.4202,133.313L92.8706,133.493L92.3066,133.793L91.8266,134.179L91.7642,134.249L91.4186,134.679L91.1114,135.257L90.9194,135.862L90.845,136.51L90.8498,136.613L90.917,137.179L90.9362,137.256L91.1114,137.806L91.1426,137.873L91.4138,138.375L91.8026,138.857L91.8698,138.919L92.2922,139.258L92.3594,139.299L92.861,139.563L92.9258,139.589L93.4778,139.762L93.5642,139.776L94.133,139.836L94.2506,139.829L94.7978,139.769L94.8818,139.747L95.4314,139.567L95.9954,139.267L96.4802,138.879L96.5426,138.811L96.8858,138.379L97.1834,137.82L97.2146,137.743L97.3826,137.199L97.3994,137.105L97.4594,136.553L97.4546,136.45L97.3874,135.876L97.3682,135.799L97.1882,135.25L96.8882,134.686L96.5042,134.206L96.4322,134.139L96.0074,133.8L95.441,133.498L95.3762,133.471L94.8242,133.299L94.7378,133.284L94.1714,133.224ZM7.74722,127.817L7.19522,127.884L7.11842,127.903L6.63601,128.057L6.51601,128.107L6.02401,128.374L5.95441,128.424L5.55361,128.751L5.49121,128.82L5.19841,129.18L5.15281,129.243L4.85761,129.804L4.66561,130.399L4.59121,131.028L4.59601,131.136L4.66321,131.688L4.86241,132.31L5.15041,132.857L5.19601,132.922L5.52721,133.33L5.59921,133.397L6.00961,133.723L6.57361,134.023L7.17842,134.218L7.25762,134.232L7.80962,134.292L8.46722,134.223L8.54402,134.203L9.08642,134.026L9.64322,133.728L9.69842,133.69L10.1064,133.361L10.188,133.272L10.512,132.859L10.8072,132.3L10.9968,131.705L11.0112,131.621L11.0712,131.074L11.0016,130.419L10.98,130.337L10.8024,129.795L10.5144,129.247L10.4664,129.18L10.1352,128.775L10.0656,128.71L9.64322,128.379L9.59042,128.345L9.09122,128.081L9.02882,128.057L8.48642,127.889L8.40962,127.875L7.85522,127.812ZM14.9904,111.507L14.7144,111.523L14.2632,111.595L13.5936,111.809L12.9552,112.15L12.8952,112.193L12.4152,112.584L12.3504,112.654L11.9544,113.153L11.6232,113.777L11.592,113.854L11.412,114.415L11.388,114.521L11.3304,114.891L11.3136,115.186L11.3136,115.277L11.3304,115.563L11.412,116.038L11.6184,116.667L11.6472,116.729L11.9568,117.303L12,117.363L12.384,117.835L12.4608,117.907L12.9576,118.301L13.008,118.332L13.5816,118.632L13.668,118.671L13.7112,118.709L13.7424,118.759L13.7544,118.815L13.7472,118.875L13.7232,118.927L13.6824,118.968L13.6344,118.995L13.5288,119.04L12.9552,119.35L12.8952,119.393L12.4152,119.784L12.3504,119.854L11.9544,120.353L11.6232,120.977L11.592,121.054L11.412,121.615L11.388,121.721L11.3304,122.091L11.3136,122.386L11.3136,122.477L11.3304,122.763L11.412,123.238L11.6184,123.867L11.6472,123.929L11.9568,124.503L12,124.563L12.384,125.035L12.4608,125.107L12.9576,125.501L13.008,125.532L13.5816,125.832L13.668,125.871L13.7112,125.909L13.7424,125.959L13.7544,126.015L13.7472,126.075L13.7232,126.127L13.6824,126.168L13.6344,126.195L13.5288,126.24L12.9552,126.55L12.8952,126.593L12.4152,126.984L12.3504,127.054L11.9544,127.553L11.6232,128.177L11.592,128.254L11.412,128.815L11.388,128.921L11.3304,129.291L11.3136,129.586L11.3136,129.677L11.3304,129.963L11.412,130.438L11.6184,131.067L11.6472,131.129L11.9568,131.703L12,131.763L12.384,132.235L12.4608,132.307L12.9576,132.701L13.008,132.732L13.5816,133.035L13.6464,133.061L14.2776,133.26L14.7024,133.327L14.9904,133.344L15.072,133.344L15.3672,133.327L15.8424,133.246L16.4712,133.039L17.1072,132.701L17.1696,132.658L17.6496,132.267L17.7144,132.197L18.1104,131.698L18.4488,131.059L18.6552,130.419L18.6768,130.325L18.7368,129.936L18.7512,129.667L18.7512,129.576L18.7344,129.291L18.6504,128.818L18.4488,128.189L18.108,127.551L18.0648,127.488L17.6736,127.008L17.604,126.943L17.1048,126.547L16.464,126.209L16.3992,126.183L16.3536,126.147L16.3344,126.123L16.3128,126.067L16.308,126.01L16.3128,125.981L16.3368,125.928L16.3776,125.885L16.4208,125.859L16.536,125.808L17.1072,125.501L17.1696,125.458L17.6496,125.067L17.7144,124.997L18.1104,124.498L18.4488,123.859L18.6552,123.219L18.6768,123.125L18.7368,122.736L18.7512,122.467L18.7512,122.376L18.7344,122.091L18.6504,121.618L18.4488,120.989L18.108,120.351L18.0648,120.288L17.6736,119.808L17.604,119.743L17.1048,119.347L16.464,119.009L16.3992,118.983L16.3536,118.947L16.3344,118.923L16.3128,118.867L16.308,118.81L16.3128,118.781L16.3368,118.728L16.3776,118.685L16.4208,118.659L16.536,118.608L17.1144,118.296L17.1696,118.258L17.6496,117.867L17.7144,117.797L18.1104,117.298L18.4488,116.659L18.6552,116.019L18.6768,115.925L18.7368,115.536L18.7512,115.267L18.7512,115.176L18.7344,114.891L18.6504,114.418L18.4488,113.789L18.108,113.151L18.0648,113.088L17.6736,112.608L17.604,112.543L17.1048,112.147L16.4688,111.811L16.4136,111.79L15.8232,111.603L15.7344,111.581L15.348,111.523L15.072,111.507ZM94.0706,125.998L93.497,126.065L93.4226,126.084L92.8706,126.264L92.3594,126.533L92.2442,126.61L91.8266,126.951L91.7642,127.02L91.4186,127.45L91.1114,128.028L90.9194,128.633L90.845,129.279L90.8498,129.382L90.917,129.951L90.9362,130.027L91.1114,130.577L91.1426,130.644L91.4138,131.146L91.4594,131.208L91.7978,131.621L91.8698,131.688L92.2898,132.027L92.3594,132.07L92.861,132.334L92.9306,132.36L93.4826,132.533L94.1306,132.607L94.2338,132.603L94.8002,132.535L94.8842,132.514L95.4314,132.339L95.4938,132.31L95.9954,132.039L96.4826,131.645L96.5402,131.583L96.8834,131.153L97.1834,130.591L97.2146,130.515L97.3826,129.97L97.3994,129.876L97.4594,129.322L97.4546,129.219L97.3874,128.647L97.3682,128.571L97.1882,128.021L96.8882,127.457L96.5042,126.977L96.4322,126.91L96.0074,126.571L95.441,126.269L95.3762,126.243L94.8194,126.07L94.7306,126.053L94.1738,125.993ZM29.3137,125.998L28.7425,126.065L28.6681,126.084L28.1161,126.264L27.5521,126.564L27.4825,126.615L27.0697,126.951L27.0049,127.02L26.6569,127.459L26.3641,128.011L26.3329,128.088L26.1649,128.633L26.1481,128.727L26.0881,129.279L26.0929,129.382L26.1601,129.955L26.1793,130.03L26.3593,130.582L26.3881,130.644L26.6593,131.146L27.0385,131.619L27.1153,131.688L27.5329,132.027L27.6025,132.07L28.1065,132.334L28.1761,132.36L28.7281,132.533L29.3737,132.607L29.4769,132.603L30.0457,132.535L30.1297,132.514L30.6769,132.339L30.7393,132.31L31.2409,132.039L31.3033,131.993L31.7233,131.647L31.7833,131.583L32.1241,131.16L32.1649,131.093L32.4337,130.582L32.6281,129.97L32.7025,129.322L32.6977,129.219L32.6305,128.652L32.6089,128.568L32.4361,128.026L32.4049,127.959L32.1337,127.457L31.7449,126.975L31.6777,126.912L31.2553,126.574L31.1881,126.533L30.6865,126.269L30.6217,126.243L30.0649,126.07L29.9761,126.053L29.4169,125.993ZM94.0706,118.843L93.5018,118.911L93.425,118.93L92.8706,119.107L92.8082,119.136L92.3066,119.407L92.2442,119.453L91.8242,119.799L91.7642,119.863L91.4258,120.283L91.3826,120.353L91.1114,120.871L90.9194,121.476L90.845,122.124L90.8498,122.227L90.917,122.794L90.9362,122.871L91.1066,123.408L91.1426,123.487L91.4138,123.989L91.4594,124.054L91.7978,124.467L91.8698,124.534L92.2922,124.872L92.3594,124.913L92.861,125.177L92.9258,125.203L93.4826,125.376L93.5714,125.393L94.1306,125.453L94.2338,125.448L94.805,125.381L94.8794,125.362L95.4314,125.182L95.9954,124.882L96.4802,124.493L96.5522,124.414L96.8834,123.999L97.1834,123.435L97.2146,123.358L97.3826,122.813L97.3994,122.719L97.4594,122.167L97.4546,122.064L97.3874,121.491L97.3682,121.414L97.1882,120.864L96.8882,120.3L96.5018,119.82L96.4322,119.758L96.0098,119.417L95.9426,119.376L95.4314,119.107L94.8194,118.913L94.1738,118.839ZM29.3137,118.843L28.7473,118.911L28.6705,118.93L28.1161,119.107L28.0537,119.136L27.5521,119.407L27.4825,119.458L27.0673,119.799L27.0073,119.863L26.6641,120.293L26.3641,120.855L26.3329,120.931L26.1649,121.476L26.1481,121.57L26.0881,122.124L26.0929,122.227L26.1601,122.799L26.1793,122.873L26.3593,123.425L26.3881,123.487L26.6593,123.989L26.7049,124.054L27.0385,124.464L27.1153,124.534L27.5353,124.872L27.5905,124.906L28.1065,125.177L28.1713,125.203L28.7281,125.376L28.8169,125.393L29.3737,125.453L29.4769,125.448L30.0505,125.381L30.1249,125.362L30.6769,125.182L31.2409,124.882L31.7209,124.495L31.7833,124.426L32.1241,124.006L32.1649,123.939L32.4337,123.425L32.6281,122.813L32.7025,122.167L32.6977,122.064L32.6305,121.495L32.6089,121.411L32.4361,120.869L32.4049,120.802L32.1337,120.3L32.0881,120.238L31.7425,119.818L31.6777,119.758L31.2577,119.419L31.1881,119.376L30.6769,119.107L30.0649,118.913L29.4169,118.839ZM94.1282,111.61L93.4922,111.682L93.4202,111.699L92.8706,111.879L92.3066,112.179L91.8266,112.565L91.7642,112.635L91.4186,113.064L91.1114,113.643L90.9194,114.247L90.845,114.895L90.8498,114.999L90.917,115.565L90.9362,115.642L91.1114,116.191L91.1426,116.259L91.4138,116.76L91.8026,117.243L91.8698,117.305L92.2922,117.643L92.3594,117.684L92.861,117.948L92.9258,117.975L93.4778,118.147L93.5642,118.162L94.133,118.222L94.2506,118.215L94.7978,118.155L94.8818,118.133L95.4314,117.953L95.9954,117.653L96.4802,117.264L96.5426,117.197L96.8906,116.758L97.1834,116.206L97.2146,116.129L97.3826,115.584L97.3994,115.491L97.4594,114.939L97.4546,114.835L97.3874,114.262L97.3682,114.185L97.1882,113.635L96.8882,113.071L96.5042,112.591L96.4322,112.524L96.0074,112.186L95.441,111.883L95.3762,111.857L94.8242,111.684L94.7378,111.67L94.1714,111.61ZM29.3713,111.61L28.7497,111.677L28.6657,111.699L28.1161,111.879L27.5521,112.179L27.4825,112.229L27.0697,112.565L27.0049,112.635L26.6569,113.074L26.3641,113.626L26.3329,113.703L26.1649,114.247L26.1481,114.341L26.0881,114.895L26.0929,114.999L26.1601,115.57L26.1793,115.644L26.3593,116.196L26.3881,116.259L26.6593,116.76L27.0433,117.24L27.1225,117.312L27.5353,117.643L27.6025,117.684L28.1065,117.948L28.1713,117.975L28.7233,118.147L28.8097,118.162L29.3761,118.222L29.4937,118.215L30.0553,118.15L30.1273,118.133L30.6769,117.953L31.2409,117.653L31.7209,117.267L31.7833,117.197L32.1289,116.767L32.4337,116.196L32.6281,115.584L32.7025,114.939L32.6977,114.835L32.6305,114.267L32.6089,114.183L32.4361,113.64L32.4049,113.573L32.1337,113.071L31.7449,112.589L31.6777,112.527L31.2553,112.188L31.1881,112.147L30.6865,111.883L30.6217,111.857L30.0697,111.684L29.9833,111.67L29.4145,111.61ZM94.0706,104.458L93.497,104.525L93.4226,104.544L92.8706,104.724L92.3594,104.993L92.2442,105.07L91.8266,105.411L91.7642,105.48L91.4258,105.898L91.3826,105.967L91.1114,106.488L90.9194,107.093L90.845,107.739L90.8498,107.842L90.917,108.411L90.9362,108.487L91.1114,109.037L91.1426,109.104L91.4138,109.606L91.4594,109.668L91.7978,110.081L91.8698,110.148L92.2898,110.487L92.3594,110.53L92.861,110.794L92.9306,110.82L93.4826,110.993L94.1306,111.067L94.2338,111.063L94.8002,110.995L94.8842,110.974L95.4314,110.799L95.4938,110.77L95.9954,110.499L96.4826,110.105L96.5402,110.043L96.8834,109.613L97.1834,109.051L97.2146,108.975L97.3826,108.43L97.3994,108.336L97.4594,107.782L97.4546,107.679L97.3874,107.107L97.3682,107.031L97.1882,106.481L96.8882,105.917L96.8378,105.847L96.5018,105.435L96.4322,105.37L96.0074,105.031L95.441,104.729L95.3762,104.703L94.8194,104.53L94.7306,104.513L94.1738,104.453ZM29.3137,104.458L28.7425,104.525L28.6681,104.544L28.1161,104.724L27.5521,105.024L27.4825,105.075L27.0697,105.411L27.0073,105.48L26.6641,105.907L26.3641,106.471L26.3329,106.548L26.1649,107.093L26.1481,107.187L26.0881,107.739L26.0929,107.842L26.1601,108.415L26.1793,108.49L26.3593,109.042L26.3881,109.104L26.6593,109.606L27.0385,110.079L27.1153,110.148L27.5329,110.487L27.6025,110.53L28.1065,110.794L28.1761,110.82L28.7281,110.993L29.3737,111.067L29.4769,111.063L30.0457,110.995L30.1297,110.974L30.6769,110.799L30.7393,110.77L31.2409,110.499L31.3033,110.453L31.7233,110.107L31.7833,110.043L32.1241,109.62L32.1649,109.553L32.4337,109.042L32.6281,108.43L32.7025,107.782L32.6977,107.679L32.6305,107.112L32.6089,107.028L32.4361,106.486L32.4049,106.419L32.1337,105.917L32.0833,105.847L31.7425,105.432L31.6777,105.372L31.2553,105.034L31.1881,104.993L30.6865,104.729L30.6217,104.703L30.0649,104.53L29.9761,104.513L29.4169,104.453ZM94.0706,97.2289L93.5018,97.2961L93.425,97.3153L92.8706,97.4929L92.8082,97.5217L92.3066,97.7929L92.2442,97.8385L91.8242,98.1841L91.7642,98.2489L91.4258,98.6689L91.3826,98.7385L91.1114,99.2569L90.9194,99.8617L90.845,100.51L90.8498,100.613L90.917,101.179L90.9362,101.256L91.1066,101.794L91.1426,101.873L91.4138,102.375L91.4594,102.439L91.7978,102.852L91.8698,102.919L92.2922,103.258L92.3594,103.299L92.861,103.563L92.9258,103.589L93.4826,103.762L93.5714,103.779L94.1306,103.839L94.2338,103.834L94.805,103.767L94.8794,103.747L95.4314,103.567L95.9954,103.267L96.4802,102.879L96.5522,102.799L96.8834,102.384L97.1834,101.82L97.2146,101.743L97.3826,101.199L97.3994,101.105L97.4594,100.553L97.4546,100.45L97.3874,99.8761L97.3682,99.7993L97.1882,99.2497L96.8882,98.6857L96.5018,98.2057L96.4322,98.1433L96.0098,97.8025L95.9426,97.7617L95.4314,97.4929L94.8194,97.2985L94.1738,97.2241ZM29.3137,97.2289L28.7473,97.2961L28.6705,97.3153L28.1161,97.4929L28.0537,97.5217L27.5521,97.7929L27.4825,97.8433L27.0673,98.1841L27.0073,98.2489L26.6641,98.6785L26.3641,99.2401L26.3329,99.3169L26.1649,99.8617L26.1481,99.9553L26.0881,100.51L26.0929,100.613L26.1601,101.184L26.1793,101.259L26.3593,101.811L26.3881,101.873L26.6593,102.375L26.7049,102.439L27.0385,102.85L27.1153,102.919L27.5353,103.258L27.5905,103.291L28.1065,103.563L28.1713,103.589L28.7281,103.762L28.8169,103.779L29.3737,103.839L29.4769,103.834L30.0505,103.767L30.1249,103.747L30.6769,103.567L31.2409,103.267L31.7209,102.881L31.7833,102.811L32.1241,102.391L32.1649,102.324L32.4337,101.811L32.6281,101.199L32.7025,100.553L32.6977,100.45L32.6305,99.8809L32.6089,99.7969L32.4361,99.2545L32.4049,99.1873L32.1337,98.6857L32.0881,98.6233L31.7425,98.2033L31.6777,98.1433L31.2577,97.8049L31.1881,97.7617L30.6769,97.4929L30.0649,97.2985L29.4169,97.2241ZM14.3568,90.2809L14.2824,90.3001L13.7088,90.4873L13.1256,90.7945L12.624,91.1977L12.5616,91.2649L12.204,91.7185L11.8944,92.2969L11.8704,92.3593L11.6904,92.9329L11.6736,93.0313L11.6112,93.6049L11.616,93.7081L11.6856,94.3009L11.7048,94.3753L11.8704,94.8937L11.9232,95.0137L12.204,95.5345L12.2472,95.5945L12.6,96.0289L12.672,96.0961L13.1112,96.4441L13.1856,96.4897L13.6992,96.7609L14.3424,96.9697L14.4312,96.9841L15.0096,97.0465L15.1128,97.0417L15.7008,96.9721L15.7824,96.9505L16.356,96.7633L16.9392,96.4561L17.4408,96.0529L17.5032,95.9857L17.8536,95.5417L17.8968,95.4721L18.168,94.9585L18.3648,94.3537L18.3888,94.2217L18.4512,93.6481L18.4464,93.5449L18.3744,92.9425L18.1704,92.3041L18.1416,92.2393L17.8632,91.7185L17.4648,91.2217L17.3928,91.1545L16.9488,90.8041L16.8792,90.7609L16.3584,90.4873L15.7248,90.2857L15.6312,90.2689L15.0288,90.2017ZM94.0706,90.0001L93.5018,90.0673L93.425,90.0865L92.8706,90.2641L92.8082,90.2929L92.3066,90.5641L92.2442,90.6097L91.8242,90.9553L91.7642,91.0201L91.4258,91.4401L91.3826,91.5097L91.1114,92.0281L90.9194,92.6329L90.845,93.2809L90.8498,93.3841L90.917,93.9505L90.9362,94.0273L91.1066,94.5649L91.1426,94.6441L91.4138,95.1457L91.8026,95.6281L91.8698,95.6905L92.2922,96.0289L92.3594,96.0697L92.861,96.3337L92.9258,96.3601L93.4826,96.5329L93.5714,96.5497L94.1306,96.6097L94.2338,96.6049L94.805,96.5377L94.8794,96.5185L95.4314,96.3385L95.9954,96.0385L96.4802,95.6497L96.5426,95.5825L96.8906,95.1433L97.1834,94.5913L97.2146,94.5145L97.3826,93.9697L97.3994,93.8761L97.4594,93.3241L97.4546,93.2209L97.3874,92.6473L97.3682,92.5705L97.1882,92.0209L96.8882,91.4569L96.5018,90.9769L96.4322,90.9145L96.0098,90.5737L95.9426,90.5329L95.4314,90.2641L94.8194,90.0697L94.1738,89.9953ZM29.3137,90.0001L28.7473,90.0673L28.6705,90.0865L28.1161,90.2641L28.0537,90.2929L27.5521,90.5641L27.4825,90.6145L27.0673,90.9553L27.0073,91.0201L26.6641,91.4497L26.3641,92.0113L26.3329,92.0881L26.1649,92.6329L26.1481,92.7265L26.0881,93.2809L26.0929,93.3841L26.1601,93.9553L26.1793,94.0297L26.3593,94.5817L26.3881,94.6441L26.6593,95.1457L27.0433,95.6257L27.1225,95.6977L27.5353,96.0289L27.5905,96.0625L28.1065,96.3337L28.1713,96.3601L28.7281,96.5329L28.8169,96.5497L29.3737,96.6097L29.4769,96.6049L30.0505,96.5377L30.1249,96.5185L30.6769,96.3385L31.2409,96.0385L31.7209,95.6521L31.7833,95.5825L32.1289,95.1529L32.4337,94.5817L32.6281,93.9697L32.7025,93.3241L32.6977,93.2209L32.6305,92.6521L32.6089,92.5681L32.4361,92.0257L32.4049,91.9585L32.1337,91.4569L32.0881,91.3945L31.7425,90.9745L31.6777,90.9145L31.2577,90.5761L31.1881,90.5329L30.6769,90.2641L30.0649,90.0697L29.4169,89.9953ZM14.3568,83.0809L14.2824,83.1001L13.7088,83.2873L13.1256,83.5945L12.624,83.9977L12.5616,84.0649L12.204,84.5185L11.8944,85.0969L11.8704,85.1593L11.6904,85.7329L11.6736,85.8313L11.6112,86.4049L11.616,86.5081L11.6856,87.1009L11.7048,87.1753L11.8704,87.6937L11.9232,87.8137L12.204,88.3345L12.2472,88.3945L12.6,88.8289L12.672,88.8961L13.1112,89.2441L13.1856,89.2897L13.6992,89.5609L14.3424,89.7697L14.4312,89.7841L15.0456,89.8489L15.7008,89.7721L15.7824,89.7505L16.356,89.5633L16.9392,89.2561L17.4408,88.8529L17.5032,88.7857L17.8536,88.3417L17.8968,88.2721L18.168,87.7585L18.3648,87.1537L18.3888,87.0217L18.4512,86.4481L18.4464,86.3449L18.3744,85.7425L18.1704,85.1041L18.1416,85.0393L17.8632,84.5185L17.4648,84.0217L17.3928,83.9545L16.9488,83.6041L16.8792,83.5609L16.3584,83.2873L15.7248,83.0857L15.6312,83.0689L15.0288,83.0017ZM29.3137,82.8433L28.7425,82.9105L28.6681,82.9297L28.1161,83.1097L27.5521,83.4097L27.4825,83.4601L27.0697,83.7961L27.0073,83.8657L26.6641,84.2929L26.3641,84.8569L26.3329,84.9337L26.1649,85.4785L26.1481,85.5721L26.0881,86.1241L26.0929,86.2273L26.1601,86.8009L26.1793,86.8753L26.3593,87.4273L26.3881,87.4897L26.6593,87.9913L27.0385,88.4641L27.1153,88.5337L27.5329,88.8721L27.6025,88.9153L28.1065,89.1793L28.1761,89.2057L28.7281,89.3785L29.3737,89.4529L29.4769,89.4481L30.0457,89.3809L30.1297,89.3593L30.6769,89.1841L30.7393,89.1553L31.2409,88.8841L31.3033,88.8385L31.7233,88.4929L31.7833,88.4281L32.1241,88.0057L32.1649,87.9385L32.4337,87.4273L32.6281,86.8153L32.7025,86.1673L32.6977,86.0641L32.6305,85.4977L32.6089,85.4137L32.4361,84.8713L32.4049,84.8041L32.1337,84.3025L32.0833,84.2329L31.7425,83.8177L31.6777,83.7577L31.2553,83.4193L31.1881,83.3785L30.6865,83.1145L30.6217,83.0881L30.0649,82.9153L29.9761,82.8985L29.4169,82.8385ZM94.0706,82.8433L93.497,82.9105L93.4226,82.9297L92.8706,83.1097L92.3594,83.3785L92.2442,83.4553L91.8266,83.7961L91.7642,83.8657L91.4258,84.2833L91.3826,84.3529L91.1114,84.8737L90.9194,85.4785L90.845,86.1241L90.8498,86.2273L90.917,86.7961L90.9362,86.8729L91.1114,87.4225L91.1426,87.4897L91.4138,87.9913L91.4594,88.0537L91.7978,88.4665L91.8698,88.5337L92.2898,88.8721L92.3594,88.9153L92.861,89.1793L92.9306,89.2057L93.4826,89.3785L94.1306,89.4529L94.2338,89.4481L94.8002,89.3809L94.8842,89.3593L95.4314,89.1841L95.4938,89.1553L95.9954,88.8841L96.4826,88.4905L96.5402,88.4281L96.8834,87.9985L97.1834,87.4369L97.2146,87.3601L97.3826,86.8153L97.3994,86.7217L97.4594,86.1673L97.4546,86.0641L97.3874,85.4929L97.3682,85.4161L97.1882,84.8665L96.8882,84.3025L96.8378,84.2329L96.5018,83.8201L96.4322,83.7553L96.0074,83.4169L95.441,83.1145L95.3762,83.0881L94.8194,82.9153L94.7306,82.8985L94.1738,82.8385ZM14.9496,75.8113L14.3568,75.8809L14.2824,75.9001L13.7088,76.0873L13.1256,76.3945L12.624,76.7977L12.5616,76.8649L12.204,77.3185L11.8944,77.8969L11.8704,77.9593L11.6904,78.5329L11.6736,78.6313L11.6112,79.2049L11.616,79.3081L11.6856,79.9009L11.7048,79.9753L11.8704,80.4937L11.9232,80.6137L12.204,81.1345L12.2472,81.1945L12.6,81.6289L12.672,81.6961L13.1112,82.0441L13.1808,82.0873L13.6992,82.3609L14.3424,82.5697L14.4312,82.5841L15.0456,82.6489L15.7008,82.5721L15.7824,82.5505L16.356,82.3633L16.9392,82.0561L17.4408,81.6529L17.5032,81.5857L17.8536,81.1417L17.8968,81.0721L18.168,80.5585L18.3648,79.9537L18.3888,79.8217L18.4512,79.2481L18.4464,79.1449L18.3744,78.5425L18.1704,77.9041L18.1416,77.8393L17.8632,77.3185L17.4648,76.8217L17.3928,76.7545L16.9488,76.4041L16.8792,76.3609L16.3584,76.0873L15.7248,75.8857L15.6312,75.8689L15.0528,75.8065ZM94.0706,75.6145L93.497,75.6817L93.4226,75.7009L92.8706,75.8809L92.3594,76.1497L92.2442,76.2265L91.8266,76.5673L91.7642,76.6369L91.4258,77.0545L91.3826,77.1241L91.1114,77.6449L90.9194,78.2497L90.845,78.8953L90.8498,78.9985L90.917,79.5649L90.9362,79.6417L91.1114,80.1913L91.1426,80.2585L91.4138,80.7601L91.4594,80.8249L91.7978,81.2377L91.8698,81.3049L92.3066,81.6529L92.3618,81.6865L92.8706,81.9529L93.4826,82.1473L93.5714,82.1641L94.1306,82.2241L94.2338,82.2193L94.805,82.1521L94.8794,82.1329L95.4314,81.9529L96.0002,81.6529L96.4826,81.2617L96.5402,81.1993L96.8834,80.7697L97.1834,80.2057L97.2146,80.1289L97.3826,79.5841L97.3994,79.4905L97.4594,78.9385L97.4546,78.8353L97.3874,78.2641L97.3682,78.1873L97.1882,77.6377L96.8882,77.0737L96.8378,77.0041L96.5018,76.5913L96.4322,76.5265L96.0074,76.1881L95.441,75.8857L95.3762,75.8593L94.8194,75.6865L94.7306,75.6697L94.1738,75.6097ZM29.3137,75.6145L28.7425,75.6817L28.6681,75.7009L28.1161,75.8809L27.5521,76.1809L27.4825,76.2313L27.0697,76.5673L27.0073,76.6369L26.6641,77.0641L26.3641,77.6281L26.3329,77.7049L26.1649,78.2497L26.1481,78.3433L26.0881,78.8953L26.0929,78.9985L26.1601,79.5697L26.1793,79.6441L26.3593,80.1961L26.3881,80.2585L26.6593,80.7601L26.7049,80.8249L27.0385,81.2353L27.1153,81.3049L27.5497,81.6529L27.6049,81.6865L28.1161,81.9529L28.7281,82.1473L28.8169,82.1641L29.3737,82.2241L29.4769,82.2193L30.0505,82.1521L30.1249,82.1329L30.6769,81.9529L31.2457,81.6529L31.7233,81.2641L31.7833,81.1993L32.1241,80.7769L32.1649,80.7097L32.4337,80.1961L32.6281,79.5841L32.7025,78.9385L32.6977,78.8353L32.6305,78.2689L32.6089,78.1849L32.4361,77.6425L32.4049,77.5753L32.1337,77.0737L32.0833,77.0041L31.7425,76.5889L31.6777,76.5289L31.2553,76.1905L31.1881,76.1497L30.6865,75.8857L30.6217,75.8593L30.0649,75.6865L29.9761,75.6697L29.4169,75.6097ZM94.1282,68.4553L93.4922,68.5273L93.4202,68.5441L92.8706,68.7241L92.3066,69.0241L91.8266,69.4105L91.7642,69.4801L91.4186,69.9097L91.1114,70.4881L90.9194,71.0929L90.845,71.7409L90.8498,71.8441L90.917,72.4105L90.9362,72.4873L91.1114,73.0369L91.1426,73.1041L91.4138,73.6057L91.8026,74.0881L91.8698,74.1505L92.2922,74.4889L92.3594,74.5297L92.861,74.7937L92.9258,74.8201L93.4778,74.9929L93.5642,75.0073L94.133,75.0673L94.2506,75.0601L94.7978,75.0001L94.8818,74.9785L95.4314,74.7985L95.9954,74.4985L96.4802,74.1097L96.5426,74.0425L96.8906,73.6033L97.1834,73.0513L97.2146,72.9745L97.3826,72.4297L97.3994,72.3361L97.4594,71.7841L97.4546,71.6809L97.3874,71.1073L97.3682,71.0305L97.1882,70.4809L96.8882,69.9169L96.5042,69.4369L96.4322,69.3697L96.0074,69.0313L95.441,68.7289L95.3762,68.7025L94.8242,68.5297L94.7378,68.5153L94.1714,68.4553ZM29.3713,68.4553L28.7497,68.5225L28.6657,68.5441L28.1161,68.7241L27.5521,69.0241L27.4825,69.0745L27.0697,69.4105L27.0049,69.4801L26.6569,69.9193L26.3641,70.4713L26.3329,70.5481L26.1649,71.0929L26.1481,71.1865L26.0881,71.7409L26.0929,71.8441L26.1601,72.4153L26.1793,72.4897L26.3593,73.0417L26.3881,73.1041L26.6593,73.6057L27.0433,74.0857L27.1225,74.1577L27.5353,74.4889L27.6025,74.5297L28.1065,74.7937L28.1713,74.8201L28.7233,74.9929L28.8097,75.0073L29.3761,75.0673L29.4937,75.0601L30.0553,74.9953L30.1273,74.9785L30.6769,74.7985L31.2409,74.4985L31.7209,74.1121L31.7833,74.0425L32.1289,73.6129L32.4337,73.0417L32.6281,72.4297L32.7025,71.7841L32.6977,71.6809L32.6305,71.1121L32.6089,71.0281L32.4361,70.4857L32.4049,70.4185L32.1337,69.9169L31.7449,69.4345L31.6777,69.3721L31.2553,69.0337L31.1881,68.9929L30.6865,68.7289L30.6217,68.7025L30.0697,68.5297L29.9833,68.5153L29.4145,68.4553ZM94.0706,61.2289L93.497,61.2961L93.4226,61.3153L92.8706,61.4953L92.3594,61.7641L92.2442,61.8409L91.8266,62.1817L91.7642,62.2513L91.4186,62.6809L91.1114,63.2593L90.9194,63.8641L90.845,64.5097L90.8498,64.6129L90.917,65.1817L90.9362,65.2585L91.1114,65.8081L91.1426,65.8753L91.4138,66.3769L91.4594,66.4393L91.7978,66.8521L91.8698,66.9193L92.2898,67.2577L92.3594,67.3009L92.861,67.5649L92.9258,67.5913L93.4778,67.7641L93.5642,67.7785L94.133,67.8385L94.2506,67.8313L94.7978,67.7713L94.8818,67.7497L95.4314,67.5697L95.9954,67.2697L96.4826,66.8761L96.5402,66.8137L96.8834,66.3841L97.1834,65.8225L97.2146,65.7457L97.3826,65.2009L97.3994,65.1073L97.4594,64.5529L97.4546,64.4497L97.3874,63.8785L97.3682,63.8017L97.1882,63.2521L96.8882,62.6881L96.5042,62.2081L96.4322,62.1409L96.0074,61.8025L95.441,61.5001L95.3762,61.4737L94.8194,61.3009L94.7306,61.2841L94.1738,61.2241ZM29.3137,61.2289L28.7425,61.2961L28.6681,61.3153L28.1161,61.4953L27.5521,61.7953L27.4825,61.8457L27.0697,62.1817L27.0049,62.2513L26.6569,62.6905L26.3641,63.2425L26.3329,63.3193L26.1649,63.8641L26.1481,63.9577L26.0881,64.5097L26.0929,64.6129L26.1601,65.1865L26.1793,65.2609L26.3593,65.8129L26.3881,65.8753L26.6593,66.3769L27.0385,66.8497L27.1153,66.9193L27.5329,67.2577L27.6025,67.3009L28.1065,67.5649L28.1713,67.5913L28.7233,67.7641L28.8097,67.7785L29.3761,67.8385L29.4937,67.8313L30.0553,67.7665L30.1273,67.7497L30.6769,67.5697L31.2409,67.2697L31.3033,67.2241L31.7233,66.8785L31.7833,66.8137L32.1241,66.3913L32.1649,66.3241L32.4337,65.8129L32.6281,65.2009L32.7025,64.5529L32.6977,64.4497L32.6305,63.8833L32.6089,63.7993L32.4361,63.2569L32.4049,63.1897L32.1337,62.6881L31.7449,62.2057L31.6777,62.1433L31.2553,61.8049L31.1881,61.7641L30.6865,61.5001L30.6217,61.4737L30.0649,61.3009L29.9761,61.2841L29.4169,61.2241ZM14.4912,61.9825L14.412,62.0017L14.0016,62.1337L13.5672,62.3665L13.4976,62.4169L13.1856,62.6737L13.1256,62.7385L12.8616,63.0721L12.6336,63.4945L12.4776,63.9865L12.4224,64.4809L12.4776,65.0065L12.4968,65.0857L12.6288,65.4985L12.66,65.5657L12.864,65.9353L12.9048,65.9929L13.1616,66.3097L13.2336,66.3745L13.5528,66.6265L13.6128,66.6649L13.9944,66.8665L14.4744,67.0177L14.9736,67.0753L15.4992,67.0201L15.5784,67.0009L15.9864,66.8713L16.428,66.6361L16.8048,66.3337L17.1192,65.9497L17.1624,65.8801L17.3616,65.4961L17.5104,65.0329L17.5272,64.9321L17.5704,64.5241L17.5152,63.9937L17.496,63.9169L17.3616,63.5089L17.1336,63.0721L16.824,62.6905L16.4472,62.3785L15.9984,62.1385L15.5256,61.9873L15.0168,61.9273ZM94.0706,54.0001L93.497,54.0673L93.4226,54.0865L92.8706,54.2665L92.3594,54.5353L92.2442,54.6121L91.8266,54.9529L91.7642,55.0225L91.4258,55.4401L91.3826,55.5097L91.1114,56.0305L90.9194,56.6353L90.845,57.2809L90.8498,57.3841L90.917,57.9529L90.9362,58.0297L91.1114,58.5793L91.1426,58.6465L91.4138,59.1481L91.4594,59.2105L91.7978,59.6233L91.8698,59.6905L92.2898,60.0289L92.3594,60.0721L92.861,60.3361L92.9306,60.3625L93.4826,60.5353L94.1306,60.6097L94.2338,60.6049L94.8002,60.5377L94.8842,60.5161L95.4314,60.3409L95.4938,60.3121L95.9954,60.0409L96.4826,59.6473L96.5402,59.5849L96.8834,59.1553L97.1834,58.5937L97.2146,58.5169L97.3826,57.9721L97.3994,57.8785L97.4594,57.3241L97.4546,57.2209L97.3874,56.6497L97.3682,56.5729L97.1882,56.0233L96.8882,55.4593L96.8378,55.3897L96.5018,54.9769L96.4322,54.9121L96.0074,54.5737L95.441,54.2713L95.3762,54.2449L94.8194,54.0721L94.7306,54.0553L94.1738,53.9953ZM29.3137,54.0001L28.7425,54.0673L28.6681,54.0865L28.1161,54.2665L27.5521,54.5665L27.4825,54.6169L27.0697,54.9529L27.0073,55.0225L26.6641,55.4497L26.3641,56.0137L26.3329,56.0905L26.1649,56.6353L26.1481,56.7289L26.0881,57.2809L26.0929,57.3841L26.1601,57.9577L26.1793,58.0321L26.3593,58.5841L26.3881,58.6465L26.6593,59.1481L27.0385,59.6209L27.1153,59.6905L27.5329,60.0289L27.6025,60.0721L28.1065,60.3361L28.1761,60.3625L28.7281,60.5353L29.3737,60.6097L29.4769,60.6049L30.0457,60.5377L30.1297,60.5161L30.6769,60.3409L30.7393,60.3121L31.2409,60.0409L31.3033,59.9953L31.7233,59.6497L31.7833,59.5849L32.1241,59.1625L32.1649,59.0953L32.4337,58.5841L32.6281,57.9721L32.7025,57.3241L32.6977,57.2209L32.6305,56.6545L32.6089,56.5705L32.4361,56.0281L32.4049,55.9609L32.1337,55.4593L32.0833,55.3897L31.7425,54.9745L31.6777,54.9145L31.2553,54.5761L31.1881,54.5353L30.6865,54.2713L30.6217,54.2449L30.0649,54.0721L29.9761,54.0553L29.4169,53.9953ZM14.4912,54.7825L14.412,54.8017L14.0016,54.9337L13.5672,55.1665L13.4976,55.2169L13.1856,55.4737L13.1256,55.5385L12.8616,55.8721L12.6336,56.2945L12.4776,56.7865L12.4224,57.2809L12.4776,57.8065L12.4968,57.8857L12.6288,58.2985L12.66,58.3657L12.864,58.7353L12.9048,58.7929L13.1616,59.1097L13.2336,59.1745L13.5528,59.4265L13.6128,59.4649L13.9944,59.6665L14.4744,59.8177L14.9736,59.8753L15.4992,59.8201L15.5784,59.8009L15.9864,59.6713L16.428,59.4361L16.8096,59.1289L17.1192,58.7497L17.1624,58.6801L17.3616,58.2961L17.5104,57.8329L17.5272,57.7321L17.5704,57.3241L17.5152,56.7937L17.496,56.7169L17.3616,56.3089L17.1336,55.8721L16.824,55.4905L16.4472,55.1785L15.9984,54.9385L15.5256,54.7873L15.0168,54.7273ZM94.1282,46.8409L93.4922,46.9129L93.4202,46.9297L92.8706,47.1097L92.3066,47.4097L91.8266,47.7961L91.7642,47.8657L91.4186,48.2953L91.1114,48.8737L90.9194,49.4785L90.845,50.1265L90.8498,50.2297L90.917,50.7961L90.9362,50.8729L91.1114,51.4225L91.1426,51.4897L91.4138,51.9913L91.8026,52.4737L91.8698,52.5361L92.2922,52.8745L92.3594,52.9153L92.861,53.1793L92.9258,53.2057L93.4778,53.3785L93.5642,53.3929L94.133,53.4529L94.2506,53.4457L94.7978,53.3857L94.8818,53.3641L95.4314,53.1841L95.9954,52.8841L96.4802,52.4953L96.5426,52.4281L96.8906,51.9889L97.1834,51.4369L97.2146,51.3601L97.3826,50.8153L97.3994,50.7217L97.4594,50.1697L97.4546,50.0665L97.3874,49.4929L97.3682,49.4161L97.1882,48.8665L96.8882,48.3025L96.5042,47.8225L96.4322,47.7553L96.0074,47.4169L95.441,47.1145L95.3762,47.0881L94.8242,46.9153L94.7378,46.9009L94.1714,46.8409ZM29.3713,46.8409L28.7497,46.9081L28.6657,46.9297L28.1161,47.1097L27.5521,47.4097L27.4825,47.4601L27.0697,47.7961L27.0049,47.8657L26.6569,48.3049L26.3641,48.8569L26.3329,48.9337L26.1649,49.4785L26.1481,49.5721L26.0881,50.1265L26.0929,50.2297L26.1601,50.8009L26.1793,50.8753L26.3593,51.4273L26.3881,51.4897L26.6593,51.9913L27.0433,52.4713L27.1225,52.5433L27.5353,52.8745L27.6025,52.9153L28.1065,53.1793L28.1713,53.2057L28.7233,53.3785L28.8097,53.3929L29.3761,53.4529L29.4937,53.4457L30.0553,53.3809L30.1273,53.3641L30.6769,53.1841L31.2409,52.8841L31.7209,52.4977L31.7833,52.4281L32.1289,51.9985L32.4337,51.4273L32.6281,50.8153L32.7025,50.1697L32.6977,50.0665L32.6305,49.4977L32.6089,49.4137L32.4361,48.8713L32.4049,48.8041L32.1337,48.3025L31.7449,47.8201L31.6777,47.7577L31.2553,47.4193L31.1881,47.3785L30.6865,47.1145L30.6217,47.0881L30.0697,46.9153L29.9833,46.9009L29.4145,46.8409ZM94.1282,39.6121L93.4922,39.6841L93.4202,39.7009L92.8706,39.8809L92.3066,40.1809L91.8266,40.5673L91.7642,40.6369L91.4186,41.0665L91.1114,41.6449L90.9194,42.2497L90.845,42.8953L90.8498,42.9985L90.917,43.5673L90.9362,43.6441L91.1114,44.1937L91.1426,44.2609L91.4138,44.7625L91.8026,45.2449L91.8698,45.3073L92.2922,45.6457L92.3594,45.6865L92.861,45.9505L92.9258,45.9769L93.4778,46.1497L93.5642,46.1641L94.133,46.2241L94.2506,46.2169L94.7978,46.1569L94.8818,46.1353L95.4314,45.9553L95.9954,45.6553L96.4802,45.2665L96.5426,45.1993L96.8906,44.7601L97.1834,44.2081L97.2146,44.1313L97.3826,43.5865L97.3994,43.4929L97.4594,42.9385L97.4546,42.8353L97.3874,42.2641L97.3682,42.1873L97.1882,41.6377L96.8882,41.0737L96.5042,40.5937L96.4322,40.5265L96.0074,40.1881L95.441,39.8857L95.3762,39.8593L94.8242,39.6865L94.7378,39.6721L94.1714,39.6121ZM29.3713,39.6121L28.7497,39.6793L28.6657,39.7009L28.1161,39.8809L27.5521,40.1809L27.4825,40.2313L27.0697,40.5673L27.0049,40.6369L26.6569,41.0761L26.3641,41.6281L26.3329,41.7049L26.1649,42.2497L26.1481,42.3433L26.0881,42.8953L26.0929,42.9985L26.1601,43.5721L26.1793,43.6465L26.3593,44.1985L26.3881,44.2609L26.6593,44.7625L27.0433,45.2425L27.1225,45.3145L27.5353,45.6457L27.6025,45.6865L28.1065,45.9505L28.1713,45.9769L28.7233,46.1497L28.8097,46.1641L29.3761,46.2241L29.4937,46.2169L30.0553,46.1521L30.1273,46.1353L30.6769,45.9553L31.2409,45.6553L31.7209,45.2689L31.7833,45.1993L32.1289,44.7697L32.4337,44.1985L32.6281,43.5865L32.7025,42.9385L32.6977,42.8353L32.6305,42.2689L32.6089,42.1849L32.4361,41.6425L32.4049,41.5753L32.1337,41.0737L31.7449,40.5913L31.6777,40.5289L31.2553,40.1905L31.1881,40.1497L30.6865,39.8857L30.6217,39.8593L30.0697,39.6865L29.9833,39.6721L29.4145,39.6121ZM7.79042,17.9064L7.51442,17.9232L7.06322,17.9952L6.39361,18.2088L5.75521,18.5496L5.69521,18.5928L5.21521,18.984L5.15041,19.0536L4.75441,19.5528L4.42321,20.1768L4.39201,20.2536L4.21201,20.8152L4.18801,20.9208L4.13041,21.2904L4.11361,21.5856L4.11361,21.6768L4.13041,21.9624L4.21201,22.4376L4.41841,23.0664L4.44721,23.1288L4.75681,23.7024L4.80001,23.7624L5.18401,24.2352L5.26081,24.3072L5.75761,24.7008L5.80801,24.732L6.38161,25.032L6.46801,25.0704L6.51121,25.1088L6.54241,25.1592L6.55441,25.2144L6.54721,25.2744L6.52321,25.3272L6.48241,25.368L6.43441,25.3944L6.32881,25.44L5.75521,25.7496L5.69521,25.7928L5.21521,26.184L5.15041,26.2536L4.75441,26.7528L4.42321,27.3768L4.39201,27.4536L4.21201,28.0152L4.18801,28.1208L4.13041,28.4904L4.11361,28.7856L4.11361,28.8768L4.13041,29.1624L4.21201,29.6376L4.41841,30.2664L4.44721,30.3288L4.75681,30.9024L4.80001,30.9624L5.18401,31.4352L5.26081,31.5072L5.75761,31.9008L5.80801,31.932L6.38161,32.232L6.46801,32.2704L6.51121,32.3088L6.54241,32.3592L6.55441,32.4144L6.54721,32.4744L6.52321,32.5272L6.48241,32.568L6.43441,32.5944L6.32881,32.64L5.75521,32.9496L5.69521,32.9928L5.21521,33.384L5.15041,33.4536L4.75441,33.9528L4.42321,34.5769L4.39201,34.6537L4.21201,35.2153L4.18801,35.3209L4.13041,35.6905L4.11361,35.9857L4.11361,36.0769L4.13041,36.3625L4.21201,36.8377L4.41841,37.4665L4.44721,37.5289L4.75681,38.1025L4.80001,38.1625L5.18401,38.6353L5.26081,38.7073L5.75761,39.1009L5.80801,39.1321L6.38161,39.4345L6.44641,39.4609L7.07762,39.6601L7.50242,39.7273L7.79042,39.7441L7.87202,39.7441L8.16722,39.7273L8.64242,39.6457L9.27122,39.4393L9.90722,39.1009L9.96962,39.0577L10.4496,38.6665L10.5144,38.5969L10.9104,38.0977L11.2488,37.4593L11.4552,36.8185L11.4768,36.7249L11.5368,36.3361L11.5512,36.0673L11.5512,35.9761L11.5344,35.6905L11.4504,35.2177L11.2488,34.5889L10.9032,33.9432L10.8648,33.888L10.4736,33.408L10.404,33.3432L9.90482,32.9472L9.26402,32.6088L9.19922,32.5824L9.15362,32.5464L9.13442,32.5224L9.11282,32.4672L9.10802,32.4096L9.11282,32.3808L9.13682,32.328L9.17762,32.2848L9.22082,32.2584L9.33602,32.208L9.90722,31.9008L9.96962,31.8576L10.4496,31.4664L10.5144,31.3968L10.9104,30.8976L11.2488,30.2592L11.4552,29.6184L11.4768,29.5248L11.5368,29.136L11.5512,28.8672L11.5512,28.776L11.5344,28.4904L11.4504,28.0176L11.2488,27.3888L10.908,26.7504L10.8648,26.688L10.4736,26.208L10.404,26.1432L9.90482,25.7472L9.26402,25.4088L9.19922,25.3824L9.15362,25.3464L9.13442,25.3224L9.11282,25.2672L9.10802,25.2096L9.11282,25.1808L9.13682,25.128L9.17762,25.0848L9.22082,25.0584L9.33602,25.008L9.90722,24.7008L9.96962,24.6576L10.4496,24.2664L10.5144,24.1968L10.9104,23.6976L11.2488,23.0592L11.4552,22.4184L11.4768,22.3248L11.5368,21.936L11.5512,21.6672L11.5512,21.576L11.5344,21.2904L11.4504,20.8176L11.2488,20.1888L10.908,19.5504L10.8648,19.488L10.4736,19.008L10.404,18.9432L9.90482,18.5472L9.26882,18.2112L9.21362,18.1896L8.62322,18.0024L8.53442,17.9808L8.14802,17.9232L7.87202,17.9064ZM94.0706,32.46L93.5018,32.5272L93.425,32.5464L92.8706,32.724L92.8082,32.7528L92.3066,33.024L92.2442,33.0696L91.8242,33.4152L91.7642,33.48L91.4258,33.9L91.3826,33.9696L91.1114,34.488L90.9194,35.0929L90.845,35.7409L90.8498,35.8441L90.917,36.4105L90.9362,36.4873L91.1066,37.0249L91.1426,37.1041L91.4138,37.6057L91.4594,37.6705L91.7978,38.0833L91.8698,38.1505L92.2922,38.4889L92.3594,38.5297L92.861,38.7937L92.9258,38.8201L93.4826,38.9929L93.5714,39.0097L94.1306,39.0697L94.2338,39.0649L94.805,38.9977L94.8794,38.9785L95.4314,38.7985L95.9954,38.4985L96.4802,38.1097L96.5522,38.0305L96.8834,37.6153L97.1834,37.0513L97.2146,36.9745L97.3826,36.4297L97.3994,36.3361L97.4594,35.7841L97.4546,35.6809L97.3874,35.1073L97.3682,35.0305L97.1882,34.4808L96.8882,33.9168L96.5018,33.4368L96.4322,33.3744L96.0098,33.0336L95.9426,32.9928L95.4314,32.724L94.8194,32.5296L94.1738,32.4552ZM29.3137,32.46L28.7473,32.5272L28.6705,32.5464L28.1161,32.724L28.0537,32.7528L27.5521,33.024L27.4825,33.0744L27.0673,33.4152L27.0073,33.48L26.6641,33.9096L26.3641,34.4712L26.3329,34.5481L26.1649,35.0929L26.1481,35.1865L26.0881,35.7409L26.0929,35.8441L26.1601,36.4153L26.1793,36.4897L26.3593,37.0417L26.3881,37.1041L26.6593,37.6057L26.7049,37.6705L27.0385,38.0809L27.1153,38.1505L27.5353,38.4889L27.5905,38.5225L28.1065,38.7937L28.1713,38.8201L28.7281,38.9929L28.8169,39.0097L29.3737,39.0697L29.4769,39.0649L30.0505,38.9977L30.1249,38.9785L30.6769,38.7985L31.2409,38.4985L31.7209,38.1121L31.7833,38.0425L32.1241,37.6225L32.1649,37.5553L32.4337,37.0417L32.6281,36.4297L32.7025,35.7841L32.6977,35.6809L32.6305,35.1121L32.6089,35.0281L32.4361,34.4856L32.4049,34.4184L32.1337,33.9168L32.0881,33.8544L31.7425,33.4344L31.6777,33.3744L31.2577,33.036L31.1881,32.9928L30.6769,32.724L30.0649,32.5296L29.4169,32.4552ZM94.1282,25.2264L93.4922,25.2984L93.4202,25.3152L92.8706,25.4952L92.3066,25.7952L92.2442,25.8408L91.8242,26.1864L91.7642,26.2512L91.4258,26.6712L91.3826,26.7408L91.1114,27.2592L90.9194,27.864L90.845,28.512L90.8498,28.6152L90.917,29.1816L90.9362,29.2584L91.1114,29.808L91.1426,29.8752L91.4138,30.3768L91.8026,30.8592L91.8698,30.9216L92.2922,31.26L92.3594,31.3008L92.861,31.5648L92.9258,31.5912L93.4826,31.764L93.5714,31.7808L94.1306,31.8408L94.2338,31.836L94.805,31.7688L94.8794,31.7496L95.4314,31.5696L95.9954,31.2696L96.4802,30.8808L96.5426,30.8136L96.8906,30.3744L97.1834,29.8224L97.2146,29.7456L97.3826,29.2008L97.3994,29.1072L97.4594,28.5552L97.4546,28.452L97.3874,27.8784L97.3682,27.8016L97.1882,27.252L96.8882,26.688L96.5018,26.208L96.4322,26.1456L96.0098,25.8048L95.9426,25.764L95.441,25.5L95.3762,25.4736L94.8242,25.3008L94.7378,25.2864L94.1714,25.2264ZM29.3713,25.2264L28.7497,25.2936L28.6657,25.3152L28.1161,25.4952L27.5521,25.7952L27.4825,25.8456L27.0673,26.1864L27.0073,26.2512L26.6641,26.6808L26.3641,27.2424L26.3329,27.3192L26.1649,27.864L26.1481,27.9576L26.0881,28.512L26.0929,28.6152L26.1601,29.1864L26.1793,29.2608L26.3593,29.8128L26.3881,29.8752L26.6593,30.3768L27.0433,30.8568L27.1225,30.9288L27.5353,31.26L27.6025,31.3008L28.1065,31.5648L28.1713,31.5912L28.7281,31.764L28.8169,31.7808L29.3737,31.8408L29.4769,31.836L30.0505,31.7688L30.1249,31.7496L30.6769,31.5696L31.2409,31.2696L31.7209,30.8832L31.7833,30.8136L32.1289,30.384L32.4337,29.8128L32.6281,29.2008L32.7025,28.5552L32.6977,28.452L32.6305,27.8832L32.6089,27.7992L32.4361,27.2568L32.4049,27.1896L32.1337,26.688L32.0881,26.6256L31.7425,26.2056L31.6777,26.1456L31.2577,25.8072L31.1881,25.764L30.6865,25.5L30.6217,25.4736L30.0697,25.3008L29.9833,25.2864L29.4145,25.2264Z" fill="black" stroke="none" stroke-width="0" />
     <g id="connector0pad" >
      <circle cx="3.37681" cy="9.78961" fill="black" r="2.70001" stroke="none" />
     </g>
    </g>
   </g>
  </g>
  <g partID="855364320">
   <g transform="translate(105.703,162.696)">
    <g id="groundplane" >
     <path d="M2.5536,0.0456L2.904,0.156L3.2736,0.3552L3.6144,0.6312L3.8616,0.938401L4.056,1.3008L4.176,1.7016L4.2144,2.1192L4.1688,2.5464L4.0536,2.9184L3.8664,3.2688L3.612,3.5856L3.5856,3.612L3.276,3.8616L2.904,4.0608L2.5536,4.1712L2.0904,4.2168L1.6608,4.1712L1.3032,4.0584L0.945599,3.8664L0.6288,3.612L0.6024,3.5856L0.348,3.2688L0.1608,2.9184L0.0456,2.5464L0,2.1192L0.0384,1.7016L0.1584,1.3008L0.372,0.909601L0.6,0.6312L0.945599,0.3504L1.3032,0.1584L1.6608,0.0456L2.0904,0Z" fill="black" stroke="none" stroke-width="0" />
     <g id="connector0pad" >
      <path d="M2.5536,0.0456L2.904,0.156L3.2736,0.3552L3.6144,0.6312L3.8616,0.938401L4.056,1.3008L4.176,1.7016L4.2144,2.1192L4.1688,2.5464L4.0536,2.9184L3.8664,3.2688L3.612,3.5856L3.5856,3.612L3.276,3.8616L2.904,4.0608L2.5536,4.1712L2.0904,4.2168L1.6608,4.1712L1.3032,4.0584L0.945599,3.8664L0.6288,3.612L0.6024,3.5856L0.348,3.2688L0.1608,2.9184L0.0456,2.5464L0,2.1192L0.0384,1.7016L0.1584,1.3008L0.372,0.909601L0.6,0.6312L0.945599,0.3504L1.3032,0.1584L1.6608,0.0456L2.0904,0Z" fill="black" stroke="none" stroke-width="0" />
     </g>
    </g>
   </g>
  </g>
  <g partID="855364330">
   <g transform="translate(3.6792,162.696)">
    <g id="groundplane" >
     <path d="M2.5536,0.0456L2.9112,0.1584L3.2688,0.3504L3.6144,0.6312L3.8616,0.938401L4.056,1.3008L4.176,1.7016L4.2144,2.1192L4.1688,2.5464L4.0536,2.9184L3.8664,3.2688L3.612,3.5856L3.5856,3.612L3.2688,3.8664L2.9112,4.0584L2.5536,4.1712L2.0904,4.2168L1.6608,4.1712L1.3104,4.0608L0.938399,3.8616L0.6288,3.612L0.6024,3.5856L0.348,3.2688L0.1608,2.9184L0.0456,2.5464L0,2.1192L0.0384,1.7016L0.1584,1.3008L0.372,0.909601L0.6,0.6312L0.940799,0.3552L1.3104,0.156L1.6608,0.0456L2.0904,0Z" fill="black" stroke="none" stroke-width="0" />
     <g id="connector0pad" >
      <path d="M2.5536,0.0456L2.9112,0.1584L3.2688,0.3504L3.6144,0.6312L3.8616,0.938401L4.056,1.3008L4.176,1.7016L4.2144,2.1192L4.1688,2.5464L4.0536,2.9184L3.8664,3.2688L3.612,3.5856L3.5856,3.612L3.2688,3.8664L2.9112,4.0584L2.5536,4.1712L2.0904,4.2168L1.6608,4.1712L1.3104,4.0608L0.938399,3.8616L0.6288,3.612L0.6024,3.5856L0.348,3.2688L0.1608,2.9184L0.0456,2.5464L0,2.1192L0.0384,1.7016L0.1584,1.3008L0.372,0.909601L0.6,0.6312L0.940799,0.3552L1.3104,0.156L1.6608,0.0456L2.0904,0Z" fill="black" stroke="none" stroke-width="0" />
     </g>
    </g>
   </g>
  </g>
  <g partID="855364340">
   <g transform="translate(105.703,2.928)">
    <g id="groundplane" >
     <path d="M2.5536,0.0456L2.904,0.156L3.276,0.3552L3.5856,0.6048L3.612,0.6312L3.8664,0.948001L4.0536,1.2984L4.176,1.704L4.2144,2.1192L4.1688,2.5464L4.0536,2.9184L3.8664,3.2688L3.612,3.5856L3.5856,3.612L3.276,3.8616L2.904,4.0608L2.5536,4.1712L2.0904,4.2168L1.6608,4.1712L1.3032,4.0584L0.945599,3.8664L0.6288,3.612L0.6024,3.5856L0.348,3.2688L0.1608,2.9184L0.0456,2.5464L0,2.1192L0.0384,1.704L0.1608,1.2984L0.348,0.948001L0.6024,0.6312L0.6288,0.6048L0.945599,0.3504L1.3032,0.1584L1.6608,0.0456L2.0904,0Z" fill="black" stroke="none" stroke-width="0" />
     <g id="connector0pad" >
      <path d="M2.5536,0.0456L2.904,0.156L3.276,0.3552L3.5856,0.6048L3.612,0.6312L3.8664,0.948001L4.0536,1.2984L4.176,1.704L4.2144,2.1192L4.1688,2.5464L4.0536,2.9184L3.8664,3.2688L3.612,3.5856L3.5856,3.612L3.276,3.8616L2.904,4.0608L2.5536,4.1712L2.0904,4.2168L1.6608,4.1712L1.3032,4.0584L0.945599,3.8664L0.6288,3.612L0.6024,3.5856L0.348,3.2688L0.1608,2.9184L0.0456,2.5464L0,2.1192L0.0384,1.704L0.1608,1.2984L0.348,0.948001L0.6024,0.6312L0.6288,0.6048L0.945599,0.3504L1.3032,0.1584L1.6608,0.0456L2.0904,0Z" fill="black" stroke="none" stroke-width="0" />
     </g>
    </g>
   </g>
  </g>
  <g partID="855364350">
   <g transform="translate(3.6792,2.928)">
    <g id="groundplane" >
     <path d="M2.5536,0.0456L2.9112,0.1584L3.2688,0.3504L3.5856,0.6048L3.612,0.6312L3.8664,0.948001L4.0536,1.2984L4.176,1.704L4.2144,2.1192L4.1688,2.5464L4.0536,2.9184L3.8664,3.2688L3.612,3.5856L3.5856,3.612L3.2688,3.8664L2.9112,4.0584L2.5536,4.1712L2.0904,4.2168L1.6608,4.1712L1.3104,4.0608L0.938399,3.8616L0.6288,3.612L0.6024,3.5856L0.348,3.2688L0.1608,2.9184L0.0456,2.5464L0,2.1192L0.0384,1.704L0.1608,1.2984L0.348,0.948001L0.6024,0.6312L0.6288,0.6048L0.938399,0.3552L1.3104,0.156L1.6608,0.0456L2.0904,0Z" fill="black" stroke="none" stroke-width="0" />
     <g id="connector0pad" >
      <path d="M2.5536,0.0456L2.9112,0.1584L3.2688,0.3504L3.5856,0.6048L3.612,0.6312L3.8664,0.948001L4.0536,1.2984L4.176,1.704L4.2144,2.1192L4.1688,2.5464L4.0536,2.9184L3.8664,3.2688L3.612,3.5856L3.5856,3.612L3.2688,3.8664L2.9112,4.0584L2.5536,4.1712L2.0904,4.2168L1.6608,4.1712L1.3104,4.0608L0.938399,3.8616L0.6288,3.612L0.6024,3.5856L0.348,3.2688L0.1608,2.9184L0.0456,2.5464L0,2.1192L0.0384,1.704L0.1608,1.2984L0.348,0.948001L0.6024,0.6312L0.6288,0.6048L0.938399,0.3552L1.3104,0.156L1.6608,0.0456L2.0904,0Z" fill="black" stroke="none" stroke-width="0" />
     </g>
    </g>
   </g>
  </g>
  <g partID="855285280">
   <g transform="translate(12.1531,112.347)">
    <g gorn="0.3.0" id="copper0" >
     <circle cx="5.04" cy="5.04" fill="none" gorn="0.3.0.0" id="connector0pin" r="2.27905" stroke="black" stroke-width="1.44" />
     <circle cx="5.04" cy="12.24" fill="none" gorn="0.3.0.1" id="connector2pin" r="2.27905" stroke="black" stroke-width="1.44" />
     <circle cx="5.04" cy="19.44" fill="none" gorn="0.3.0.2" id="connector1pin" r="2.27905" stroke="black" stroke-width="1.44" />
    </g>
   </g>
  </g>
  <g partID="855333620">
   <g transform="translate(4.95311,18.7469)">
    <g gorn="0.3.0" id="copper0" >
     <circle cx="5.04" cy="5.04" fill="none" gorn="0.3.0.0" id="connector1pin" r="2.27905" stroke="black" stroke-width="1.44" />
     <circle cx="5.04" cy="12.24" fill="none" gorn="0.3.0.1" id="connector0pin" r="2.27905" stroke="black" stroke-width="1.44" />
     <circle cx="5.04" cy="19.44" fill="none" gorn="0.3.0.2" id="connector2pin" r="2.27905" stroke="black" stroke-width="1.44" />
    </g>
   </g>
  </g>
  <g partID="855274980">
   <g transform="translate(7.11311,143.307)">
    <g transform="matrix(0,-1,1,0,0,0)">
     <g id="copper0" >
      <g id="copper1" >
       <circle cx="2.88" cy="2.88" fill="none" id="connector0pin" r="1.8" stroke="black" stroke-width="1.44" />
       <circle cx="10.0933" cy="2.88" fill="none" id="connector1pin" r="1.8" stroke="black" stroke-width="1.44" />
      </g>
     </g>
    </g>
   </g>
  </g>
  <g partID="855240760">
   <g transform="translate(103.377,0.602936)">
    <g id="copper0" >
     <circle cx="4.43465" cy="4.43465" fill="none" id="nonconn0" r="2.83465" stroke="black" stroke-width="0" />
    </g>
   </g>
  </g>
  <g partID="855240740">
   <g transform="translate(1.35311,0.602936)">
    <g id="copper0" >
     <circle cx="4.43465" cy="4.43465" fill="none" id="nonconn0" r="2.83465" stroke="black" stroke-width="0" />
    </g>
   </g>
  </g>
  <g partID="855240720">
   <g transform="translate(1.35311,160.371)">
    <g id="copper0" >
     <circle cx="4.43465" cy="4.43465" fill="none" id="nonconn0" r="2.83465" stroke="black" stroke-width="0" />
    </g>
   </g>
  </g>
  <g partID="855240650">
   <g transform="translate(103.377,160.371)">
    <g id="copper0" >
     <circle cx="4.43465" cy="4.43465" fill="none" id="nonconn0" r="2.83465" stroke="black" stroke-width="0" />
    </g>
   </g>
  </g>
  <g partID="855150900">
   <g transform="translate(100.148,26.8581)">
    <g transform="matrix(0,1,-1,0,0,0)">
     <g id="copper0" >
      <circle cx="3.83597" cy="68.5907" fill="none" id="connector1pin" r="1.99175" stroke="black" stroke-width="1.19025" />
      <circle cx="11.0653" cy="68.5907" fill="none" id="connector2pin" r="1.99175" stroke="black" stroke-width="1.19025" />
      <circle cx="18.2209" cy="68.5907" fill="none" id="connector3pin" r="1.99175" stroke="black" stroke-width="1.19025" />
      <circle cx="25.4502" cy="68.5907" fill="none" id="connector4pin" r="1.99175" stroke="black" stroke-width="1.19025" />
      <circle cx="32.6058" cy="68.5907" fill="none" id="connector5pin" r="1.99175" stroke="black" stroke-width="1.19025" />
      <circle cx="39.8351" cy="68.5907" fill="none" id="connector6pin" r="1.99175" stroke="black" stroke-width="1.19025" />
      <circle cx="47.0644" cy="68.5907" fill="none" id="connector7pin" r="1.99175" stroke="black" stroke-width="1.19025" />
      <circle cx="54.22" cy="68.5907" fill="none" id="connector8pin" r="1.99175" stroke="black" stroke-width="1.19025" />
      <circle cx="61.4493" cy="68.5907" fill="none" id="connector9pin" r="1.99175" stroke="black" stroke-width="1.19025" />
      <circle cx="68.6049" cy="68.5907" fill="none" id="connector10pin" r="1.99175" stroke="black" stroke-width="1.19025" />
      <circle cx="75.8342" cy="68.5907" fill="none" id="connector11pin" r="1.99175" stroke="black" stroke-width="1.19025" />
      <circle cx="83.0635" cy="68.5907" fill="none" id="connector12pin" r="1.99175" stroke="black" stroke-width="1.19025" />
      <circle cx="90.2191" cy="68.5907" fill="none" id="connector13pin" r="1.99175" stroke="black" stroke-width="1.19025" />
      <circle cx="97.4484" cy="68.5907" fill="none" id="connector14pin" r="1.99175" stroke="black" stroke-width="1.19025" />
      <circle cx="104.604" cy="68.5907" fill="none" id="connector15pin" r="1.99175" stroke="black" stroke-width="1.19025" />
      <circle cx="111.833" cy="68.5907" fill="none" id="connector16pin" r="1.99175" stroke="black" stroke-width="1.19025" />
      <circle cx="118.989" cy="68.5907" fill="none" id="connector17pin" r="1.99175" stroke="black" stroke-width="1.19025" />
      <circle cx="126.218" cy="68.5907" fill="none" id="connector18pin" r="1.99175" stroke="black" stroke-width="1.19025" />
      <circle cx="133.448" cy="68.5907" fill="none" id="connector19pin" r="1.99175" stroke="black" stroke-width="1.19025" />
      <circle cx="133.448" cy="3.83518" fill="none" id="connector20pin" r="1.99175" stroke="black" stroke-width="1.19025" />
      <circle cx="126.218" cy="3.83518" fill="none" id="connector21pin" r="1.99175" stroke="black" stroke-width="1.19025" />
      <circle cx="118.989" cy="3.83518" fill="none" id="connector22pin" r="1.99175" stroke="black" stroke-width="1.19025" />
      <circle cx="111.833" cy="3.83518" fill="none" id="connector23pin" r="1.99175" stroke="black" stroke-width="1.19025" />
      <circle cx="104.604" cy="3.83518" fill="none" id="connector24pin" r="1.99175" stroke="black" stroke-width="1.19025" />
      <circle cx="97.4484" cy="3.83518" fill="none" id="connector25pin" r="1.99175" stroke="black" stroke-width="1.19025" />
      <circle cx="90.2191" cy="3.83518" fill="none" id="connector26pin" r="1.99175" stroke="black" stroke-width="1.19025" />
      <circle cx="83.0635" cy="3.83518" fill="none" id="connector27pin" r="1.99175" stroke="black" stroke-width="1.19025" />
      <circle cx="75.8342" cy="3.83518" fill="none" id="connector28pin" r="1.99175" stroke="black" stroke-width="1.19025" />
      <circle cx="68.6049" cy="3.83518" fill="none" id="connector29pin" r="1.99175" stroke="black" stroke-width="1.19025" />
      <circle cx="61.4493" cy="3.83518" fill="none" id="connector30pin" r="1.99175" stroke="black" stroke-width="1.19025" />
      <circle cx="54.22" cy="3.83518" fill="none" id="connector31pin" r="1.99175" stroke="black" stroke-width="1.19025" />
      <circle cx="47.0644" cy="3.83518" fill="none" id="connector32pin" r="1.99175" stroke="black" stroke-width="1.19025" />
      <circle cx="39.8351" cy="3.83518" fill="none" id="connector33pin" r="1.99175" stroke="black" stroke-width="1.19025" />
      <circle cx="32.6058" cy="3.83518" fill="none" id="connector34pin" r="1.99175" stroke="black" stroke-width="1.19025" />
      <circle cx="25.4502" cy="3.83518" fill="none" id="connector35pin" r="1.99175" stroke="black" stroke-width="1.19025" />
      <circle cx="18.2209" cy="3.83518" fill="none" id="connector36pin" r="1.99175" stroke="black" stroke-width="1.19025" />
      <circle cx="11.0653" cy="3.83518" fill="none" id="connector37pin" r="1.99175" stroke="black" stroke-width="1.19025" />
      <circle cx="3.83597" cy="3.83518" fill="none" id="connector38pin" r="1.99175" stroke="black" stroke-width="1.19025" />
     </g>
    </g>
   </g>
  </g>
  <g partID="855150820">
   <g transform="translate(14.8171,69.3629)">
    <g transform="matrix(0,-1,1,0,0,0)">
     <g id="copper0" >
      <circle connectorname="A" cx="9.9" cy="2.34" fill="none" id="connector0pad" r="1.49386" stroke="black" stroke-width="0.72" />
      <circle connectorname="C" cx="2.7" cy="2.34" fill="none" id="connector1pad" r="1.49386" stroke="black" stroke-width="0.72" />
     </g>
    </g>
   </g>
  </g>
  <g partID="855357450">
   <g transform="translate(8.98511,99.3869)">
    <g transform="matrix(0,-1,1,0,0,0)">
     <g id="copper0" >
      <circle cx="3.6" cy="8.208" fill="none" id="connector0pin" r="1.98" stroke="black" stroke-width="1.44" />
      <circle cx="10.8" cy="8.208" fill="none" id="connector1pin" r="1.98" stroke="black" stroke-width="1.44" />
      <circle cx="18" cy="8.208" fill="none" id="connector2pin" r="1.98" stroke="black" stroke-width="1.44" />
     </g>
    </g>
   </g>
  </g>
 </g>
</svg>
