G04 MADE WITH FRITZING*
G04 WWW.FRITZING.ORG*
G04 DOUBLE SIDED*
G04 HOLES PLATED*
G04 CONTOUR ON CENTER OF CONTOUR VECTOR*
%ASAXBY*%
%FSLAX23Y23*%
%MOIN*%
%OFA0B0*%
%SFA1.0B1.0*%
%ADD10C,0.081858*%
%ADD11C,0.061496*%
%ADD12C,0.085000*%
%ADD13C,0.109055*%
%ADD14C,0.088000*%
%LNMASK0*%
G90*
G70*
G54D10*
X385Y1878D03*
X385Y1777D03*
X385Y1678D03*
X385Y1577D03*
X385Y1478D03*
X385Y1378D03*
X385Y1277D03*
X385Y1178D03*
X385Y1077D03*
X385Y978D03*
X385Y878D03*
X385Y777D03*
X385Y678D03*
X385Y577D03*
X385Y478D03*
X385Y378D03*
X385Y278D03*
X385Y178D03*
X385Y77D03*
X1285Y77D03*
X1285Y178D03*
X1285Y278D03*
X1285Y378D03*
X1285Y478D03*
X1285Y577D03*
X1285Y678D03*
X1285Y777D03*
X1285Y878D03*
X1285Y978D03*
X1285Y1077D03*
X1285Y1178D03*
X1285Y1277D03*
X1285Y1378D03*
X1285Y1478D03*
X1285Y1577D03*
X1285Y1678D03*
X1285Y1777D03*
X1285Y1878D03*
G54D11*
X185Y1478D03*
X185Y1378D03*
G54D12*
X185Y1078D03*
X185Y978D03*
X185Y878D03*
G54D13*
X185Y778D03*
X185Y678D03*
X185Y578D03*
G54D14*
X185Y178D03*
X185Y78D03*
G04 End of Mask0*
M02*