G04 MADE WITH FRITZING*
G04 WWW.FRITZING.ORG*
G04 DOUBLE SIDED*
G04 HOLES PLATED*
G04 CONTOUR ON CENTER OF CONTOUR VECTOR*
%ASAXBY*%
%FSLAX23Y23*%
%MOIN*%
%OFA0B0*%
%SFA1.0B1.0*%
%ADD10C,0.075000*%
%ADD11C,0.051496*%
%ADD12C,0.071858*%
%ADD13C,0.078000*%
%ADD14C,0.099055*%
%ADD15R,0.035433X0.027559*%
%ADD16C,0.024000*%
%ADD17R,0.001000X0.001000*%
%LNCOPPER1*%
G90*
G70*
G54D10*
X185Y1078D03*
X185Y978D03*
X185Y878D03*
G54D11*
X185Y1478D03*
X185Y1378D03*
X185Y1478D03*
X185Y1378D03*
G54D12*
X385Y1878D03*
X385Y1777D03*
X385Y1678D03*
X385Y1577D03*
X385Y1478D03*
X385Y1378D03*
X385Y1277D03*
X385Y1178D03*
X385Y1077D03*
X385Y978D03*
X385Y878D03*
X385Y777D03*
X385Y678D03*
X385Y577D03*
X385Y478D03*
X385Y378D03*
X385Y278D03*
X385Y178D03*
X385Y77D03*
X1285Y77D03*
X1285Y178D03*
X1285Y278D03*
X1285Y378D03*
X1285Y478D03*
X1285Y577D03*
X1285Y678D03*
X1285Y777D03*
X1285Y878D03*
X1285Y978D03*
X1285Y1077D03*
X1285Y1178D03*
X1285Y1277D03*
X1285Y1378D03*
X1285Y1478D03*
X1285Y1577D03*
X1285Y1678D03*
X1285Y1777D03*
X1285Y1878D03*
G54D13*
X185Y178D03*
X185Y78D03*
G54D14*
X185Y778D03*
X185Y678D03*
X185Y578D03*
G54D15*
X285Y1827D03*
X285Y1878D03*
X185Y1827D03*
X185Y1878D03*
G54D16*
X273Y1878D02*
X197Y1878D01*
D02*
X184Y1878D02*
X273Y1878D01*
D02*
X366Y1878D02*
X184Y1878D01*
D02*
X273Y1827D02*
X197Y1827D01*
D02*
X185Y1835D02*
X185Y1870D01*
D02*
X184Y1478D02*
X185Y1819D01*
D02*
X184Y1478D02*
X184Y1478D01*
D02*
X185Y1096D02*
X185Y1362D01*
D02*
X366Y777D02*
X214Y778D01*
D02*
X366Y577D02*
X214Y578D01*
D02*
X366Y77D02*
X204Y78D01*
D02*
X185Y548D02*
X185Y197D01*
D02*
X185Y1870D02*
X185Y1835D01*
D02*
X185Y1870D02*
X185Y1835D01*
G54D17*
X184Y990D02*
X187Y990D01*
X181Y989D02*
X190Y989D01*
X179Y988D02*
X192Y988D01*
X178Y987D02*
X194Y987D01*
X177Y986D02*
X196Y986D01*
X176Y985D02*
X198Y985D01*
X175Y984D02*
X200Y984D01*
X175Y983D02*
X202Y983D01*
X174Y982D02*
X204Y982D01*
X174Y981D02*
X206Y981D01*
X174Y980D02*
X208Y980D01*
X174Y979D02*
X210Y979D01*
X174Y978D02*
X212Y978D01*
X174Y977D02*
X214Y977D01*
X174Y976D02*
X216Y976D01*
X174Y975D02*
X218Y975D01*
X175Y974D02*
X220Y974D01*
X175Y973D02*
X222Y973D01*
X176Y972D02*
X224Y972D01*
X176Y971D02*
X226Y971D01*
X177Y970D02*
X228Y970D01*
X178Y969D02*
X230Y969D01*
X180Y968D02*
X232Y968D01*
X181Y967D02*
X234Y967D01*
X183Y966D02*
X236Y966D01*
X185Y965D02*
X238Y965D01*
X187Y964D02*
X240Y964D01*
X189Y963D02*
X242Y963D01*
X191Y962D02*
X244Y962D01*
X193Y961D02*
X246Y961D01*
X195Y960D02*
X248Y960D01*
X197Y959D02*
X250Y959D01*
X199Y958D02*
X252Y958D01*
X201Y957D02*
X254Y957D01*
X203Y956D02*
X256Y956D01*
X205Y955D02*
X258Y955D01*
X207Y954D02*
X260Y954D01*
X209Y953D02*
X262Y953D01*
X211Y952D02*
X264Y952D01*
X213Y951D02*
X266Y951D01*
X215Y950D02*
X268Y950D01*
X217Y949D02*
X270Y949D01*
X219Y948D02*
X272Y948D01*
X221Y947D02*
X274Y947D01*
X223Y946D02*
X276Y946D01*
X225Y945D02*
X278Y945D01*
X227Y944D02*
X280Y944D01*
X229Y943D02*
X282Y943D01*
X231Y942D02*
X284Y942D01*
X233Y941D02*
X286Y941D01*
X235Y940D02*
X288Y940D01*
X237Y939D02*
X290Y939D01*
X239Y938D02*
X292Y938D01*
X241Y937D02*
X294Y937D01*
X243Y936D02*
X296Y936D01*
X245Y935D02*
X298Y935D01*
X247Y934D02*
X300Y934D01*
X249Y933D02*
X302Y933D01*
X251Y932D02*
X304Y932D01*
X253Y931D02*
X306Y931D01*
X255Y930D02*
X308Y930D01*
X257Y929D02*
X310Y929D01*
X259Y928D02*
X312Y928D01*
X261Y927D02*
X314Y927D01*
X263Y926D02*
X316Y926D01*
X265Y925D02*
X318Y925D01*
X267Y924D02*
X320Y924D01*
X269Y923D02*
X322Y923D01*
X271Y922D02*
X324Y922D01*
X273Y921D02*
X326Y921D01*
X275Y920D02*
X328Y920D01*
X277Y919D02*
X330Y919D01*
X279Y918D02*
X332Y918D01*
X281Y917D02*
X334Y917D01*
X283Y916D02*
X336Y916D01*
X285Y915D02*
X338Y915D01*
X287Y914D02*
X340Y914D01*
X289Y913D02*
X342Y913D01*
X291Y912D02*
X344Y912D01*
X293Y911D02*
X346Y911D01*
X295Y910D02*
X348Y910D01*
X297Y909D02*
X350Y909D01*
X299Y908D02*
X352Y908D01*
X301Y907D02*
X354Y907D01*
X303Y906D02*
X356Y906D01*
X305Y905D02*
X358Y905D01*
X307Y904D02*
X360Y904D01*
X309Y903D02*
X362Y903D01*
X311Y902D02*
X364Y902D01*
X313Y901D02*
X366Y901D01*
X315Y900D02*
X368Y900D01*
X317Y899D02*
X370Y899D01*
X319Y898D02*
X372Y898D01*
X321Y897D02*
X374Y897D01*
X323Y896D02*
X376Y896D01*
X325Y895D02*
X378Y895D01*
X327Y894D02*
X380Y894D01*
X329Y893D02*
X382Y893D01*
X331Y892D02*
X384Y892D01*
X333Y891D02*
X386Y891D01*
X150Y890D02*
X187Y890D01*
X335Y890D02*
X388Y890D01*
X82Y889D02*
X190Y889D01*
X337Y889D02*
X390Y889D01*
X79Y888D02*
X192Y888D01*
X339Y888D02*
X392Y888D01*
X78Y887D02*
X193Y887D01*
X341Y887D02*
X393Y887D01*
X77Y886D02*
X194Y886D01*
X343Y886D02*
X394Y886D01*
X76Y885D02*
X195Y885D01*
X345Y885D02*
X395Y885D01*
X75Y884D02*
X195Y884D01*
X347Y884D02*
X396Y884D01*
X74Y883D02*
X196Y883D01*
X349Y883D02*
X396Y883D01*
X74Y882D02*
X196Y882D01*
X351Y882D02*
X397Y882D01*
X74Y881D02*
X196Y881D01*
X353Y881D02*
X397Y881D01*
X73Y880D02*
X197Y880D01*
X355Y880D02*
X397Y880D01*
X73Y879D02*
X197Y879D01*
X357Y879D02*
X397Y879D01*
X73Y878D02*
X197Y878D01*
X359Y878D02*
X397Y878D01*
X73Y877D02*
X197Y877D01*
X361Y877D02*
X397Y877D01*
X73Y876D02*
X197Y876D01*
X363Y876D02*
X397Y876D01*
X73Y875D02*
X196Y875D01*
X365Y875D02*
X397Y875D01*
X73Y874D02*
X196Y874D01*
X367Y874D02*
X397Y874D01*
X73Y873D02*
X196Y873D01*
X369Y873D02*
X396Y873D01*
X73Y872D02*
X195Y872D01*
X371Y872D02*
X396Y872D01*
X73Y871D02*
X194Y871D01*
X373Y871D02*
X395Y871D01*
X73Y870D02*
X193Y870D01*
X375Y870D02*
X394Y870D01*
X73Y869D02*
X192Y869D01*
X377Y869D02*
X393Y869D01*
X73Y868D02*
X191Y868D01*
X379Y868D02*
X392Y868D01*
X73Y867D02*
X189Y867D01*
X381Y867D02*
X390Y867D01*
X73Y866D02*
X149Y866D01*
X385Y866D02*
X387Y866D01*
X73Y865D02*
X96Y865D01*
X73Y864D02*
X96Y864D01*
X73Y863D02*
X96Y863D01*
X73Y862D02*
X96Y862D01*
X73Y861D02*
X96Y861D01*
X73Y860D02*
X96Y860D01*
X73Y859D02*
X96Y859D01*
X73Y858D02*
X96Y858D01*
X73Y857D02*
X96Y857D01*
X73Y856D02*
X96Y856D01*
X73Y855D02*
X96Y855D01*
X73Y854D02*
X96Y854D01*
X73Y853D02*
X96Y853D01*
X73Y852D02*
X96Y852D01*
X73Y851D02*
X96Y851D01*
X73Y850D02*
X96Y850D01*
X73Y849D02*
X96Y849D01*
X73Y848D02*
X96Y848D01*
X73Y847D02*
X96Y847D01*
X73Y846D02*
X96Y846D01*
X73Y845D02*
X96Y845D01*
X73Y844D02*
X96Y844D01*
X73Y843D02*
X96Y843D01*
X73Y842D02*
X96Y842D01*
X73Y841D02*
X96Y841D01*
X73Y840D02*
X96Y840D01*
X73Y839D02*
X96Y839D01*
X73Y838D02*
X96Y838D01*
X73Y837D02*
X96Y837D01*
X73Y836D02*
X96Y836D01*
X73Y835D02*
X96Y835D01*
X73Y834D02*
X96Y834D01*
X73Y833D02*
X96Y833D01*
X73Y832D02*
X96Y832D01*
X73Y831D02*
X96Y831D01*
X73Y830D02*
X96Y830D01*
X73Y829D02*
X96Y829D01*
X73Y828D02*
X96Y828D01*
X73Y827D02*
X96Y827D01*
X73Y826D02*
X96Y826D01*
X73Y825D02*
X96Y825D01*
X73Y824D02*
X96Y824D01*
X73Y823D02*
X96Y823D01*
X73Y822D02*
X96Y822D01*
X73Y821D02*
X96Y821D01*
X73Y820D02*
X96Y820D01*
X73Y819D02*
X96Y819D01*
X73Y818D02*
X96Y818D01*
X73Y817D02*
X96Y817D01*
X73Y816D02*
X96Y816D01*
X73Y815D02*
X96Y815D01*
X73Y814D02*
X96Y814D01*
X73Y813D02*
X96Y813D01*
X73Y812D02*
X96Y812D01*
X73Y811D02*
X96Y811D01*
X73Y810D02*
X96Y810D01*
X73Y809D02*
X96Y809D01*
X73Y808D02*
X96Y808D01*
X73Y807D02*
X96Y807D01*
X73Y806D02*
X96Y806D01*
X73Y805D02*
X96Y805D01*
X73Y804D02*
X96Y804D01*
X73Y803D02*
X96Y803D01*
X73Y802D02*
X96Y802D01*
X73Y801D02*
X96Y801D01*
X73Y800D02*
X96Y800D01*
X73Y799D02*
X96Y799D01*
X73Y798D02*
X96Y798D01*
X73Y797D02*
X96Y797D01*
X73Y796D02*
X96Y796D01*
X73Y795D02*
X96Y795D01*
X73Y794D02*
X96Y794D01*
X73Y793D02*
X96Y793D01*
X73Y792D02*
X96Y792D01*
X73Y791D02*
X96Y791D01*
X73Y790D02*
X96Y790D01*
X73Y789D02*
X97Y789D01*
X74Y788D02*
X97Y788D01*
X74Y787D02*
X97Y787D01*
X74Y786D02*
X97Y786D01*
X74Y785D02*
X97Y785D01*
X74Y784D02*
X97Y784D01*
X74Y783D02*
X97Y783D01*
X74Y782D02*
X97Y782D01*
X74Y781D02*
X97Y781D01*
X74Y780D02*
X97Y780D01*
X74Y779D02*
X97Y779D01*
X74Y778D02*
X97Y778D01*
X74Y777D02*
X97Y777D01*
X74Y776D02*
X97Y776D01*
X74Y775D02*
X97Y775D01*
X74Y774D02*
X97Y774D01*
X74Y773D02*
X97Y773D01*
X74Y772D02*
X97Y772D01*
X74Y771D02*
X97Y771D01*
X74Y770D02*
X97Y770D01*
X74Y769D02*
X97Y769D01*
X74Y768D02*
X97Y768D01*
X74Y767D02*
X97Y767D01*
X74Y766D02*
X97Y766D01*
X74Y765D02*
X97Y765D01*
X74Y764D02*
X97Y764D01*
X74Y763D02*
X97Y763D01*
X74Y762D02*
X97Y762D01*
X74Y761D02*
X97Y761D01*
X74Y760D02*
X97Y760D01*
X74Y759D02*
X97Y759D01*
X74Y758D02*
X97Y758D01*
X74Y757D02*
X97Y757D01*
X74Y756D02*
X97Y756D01*
X74Y755D02*
X97Y755D01*
X74Y754D02*
X97Y754D01*
X74Y753D02*
X97Y753D01*
X74Y752D02*
X97Y752D01*
X74Y751D02*
X97Y751D01*
X74Y750D02*
X97Y750D01*
X74Y749D02*
X97Y749D01*
X74Y748D02*
X97Y748D01*
X74Y747D02*
X97Y747D01*
X74Y746D02*
X97Y746D01*
X74Y745D02*
X97Y745D01*
X74Y744D02*
X97Y744D01*
X74Y743D02*
X97Y743D01*
X74Y742D02*
X97Y742D01*
X74Y741D02*
X97Y741D01*
X74Y740D02*
X97Y740D01*
X74Y739D02*
X97Y739D01*
X74Y738D02*
X97Y738D01*
X74Y737D02*
X97Y737D01*
X74Y736D02*
X97Y736D01*
X74Y735D02*
X97Y735D01*
X74Y734D02*
X97Y734D01*
X74Y733D02*
X97Y733D01*
X74Y732D02*
X97Y732D01*
X74Y731D02*
X97Y731D01*
X74Y730D02*
X97Y730D01*
X74Y729D02*
X97Y729D01*
X74Y728D02*
X97Y728D01*
X74Y727D02*
X97Y727D01*
X74Y726D02*
X97Y726D01*
X74Y725D02*
X97Y725D01*
X74Y724D02*
X97Y724D01*
X74Y723D02*
X97Y723D01*
X74Y722D02*
X97Y722D01*
X74Y721D02*
X97Y721D01*
X74Y720D02*
X97Y720D01*
X74Y719D02*
X97Y719D01*
X74Y718D02*
X97Y718D01*
X74Y717D02*
X97Y717D01*
X74Y716D02*
X97Y716D01*
X74Y715D02*
X97Y715D01*
X74Y714D02*
X97Y714D01*
X74Y713D02*
X97Y713D01*
X74Y712D02*
X97Y712D01*
X74Y711D02*
X97Y711D01*
X74Y710D02*
X97Y710D01*
X74Y709D02*
X97Y709D01*
X74Y708D02*
X97Y708D01*
X74Y707D02*
X97Y707D01*
X74Y706D02*
X97Y706D01*
X74Y705D02*
X97Y705D01*
X74Y704D02*
X97Y704D01*
X74Y703D02*
X97Y703D01*
X74Y702D02*
X97Y702D01*
X74Y701D02*
X97Y701D01*
X74Y700D02*
X97Y700D01*
X74Y699D02*
X97Y699D01*
X74Y698D02*
X97Y698D01*
X74Y697D02*
X97Y697D01*
X74Y696D02*
X97Y696D01*
X74Y695D02*
X97Y695D01*
X74Y694D02*
X97Y694D01*
X74Y693D02*
X97Y693D01*
X74Y692D02*
X97Y692D01*
X74Y691D02*
X97Y691D01*
X74Y690D02*
X97Y690D01*
X74Y689D02*
X97Y689D01*
X74Y688D02*
X97Y688D01*
X74Y687D02*
X97Y687D01*
X74Y686D02*
X97Y686D01*
X74Y685D02*
X97Y685D01*
X74Y684D02*
X97Y684D01*
X74Y683D02*
X97Y683D01*
X74Y682D02*
X97Y682D01*
X74Y681D02*
X97Y681D01*
X74Y680D02*
X97Y680D01*
X74Y679D02*
X97Y679D01*
X74Y678D02*
X97Y678D01*
X74Y677D02*
X97Y677D01*
X74Y676D02*
X97Y676D01*
X74Y675D02*
X97Y675D01*
X74Y674D02*
X97Y674D01*
X74Y673D02*
X97Y673D01*
X74Y672D02*
X97Y672D01*
X74Y671D02*
X97Y671D01*
X74Y670D02*
X97Y670D01*
X74Y669D02*
X97Y669D01*
X74Y668D02*
X97Y668D01*
X74Y667D02*
X97Y667D01*
X74Y666D02*
X97Y666D01*
X74Y665D02*
X97Y665D01*
X74Y664D02*
X97Y664D01*
X74Y663D02*
X97Y663D01*
X74Y662D02*
X97Y662D01*
X74Y661D02*
X97Y661D01*
X74Y660D02*
X97Y660D01*
X74Y659D02*
X97Y659D01*
X74Y658D02*
X97Y658D01*
X74Y657D02*
X97Y657D01*
X74Y656D02*
X97Y656D01*
X74Y655D02*
X97Y655D01*
X74Y654D02*
X97Y654D01*
X74Y653D02*
X97Y653D01*
X74Y652D02*
X97Y652D01*
X74Y651D02*
X97Y651D01*
X74Y650D02*
X97Y650D01*
X74Y649D02*
X97Y649D01*
X74Y648D02*
X97Y648D01*
X74Y647D02*
X97Y647D01*
X74Y646D02*
X97Y646D01*
X74Y645D02*
X97Y645D01*
X74Y644D02*
X97Y644D01*
X74Y643D02*
X97Y643D01*
X74Y642D02*
X97Y642D01*
X74Y641D02*
X97Y641D01*
X74Y640D02*
X97Y640D01*
X74Y639D02*
X97Y639D01*
X74Y638D02*
X97Y638D01*
X74Y637D02*
X97Y637D01*
X74Y636D02*
X97Y636D01*
X74Y635D02*
X97Y635D01*
X74Y634D02*
X97Y634D01*
X74Y633D02*
X97Y633D01*
X74Y632D02*
X97Y632D01*
X74Y631D02*
X97Y631D01*
X74Y630D02*
X97Y630D01*
X74Y629D02*
X97Y629D01*
X74Y628D02*
X97Y628D01*
X74Y627D02*
X97Y627D01*
X74Y626D02*
X97Y626D01*
X74Y625D02*
X97Y625D01*
X74Y624D02*
X97Y624D01*
X74Y623D02*
X97Y623D01*
X74Y622D02*
X97Y622D01*
X74Y621D02*
X97Y621D01*
X74Y620D02*
X97Y620D01*
X74Y619D02*
X97Y619D01*
X74Y618D02*
X97Y618D01*
X74Y617D02*
X97Y617D01*
X74Y616D02*
X97Y616D01*
X74Y615D02*
X97Y615D01*
X74Y614D02*
X97Y614D01*
X74Y613D02*
X97Y613D01*
X74Y612D02*
X97Y612D01*
X74Y611D02*
X97Y611D01*
X74Y610D02*
X97Y610D01*
X74Y609D02*
X97Y609D01*
X74Y608D02*
X97Y608D01*
X74Y607D02*
X97Y607D01*
X74Y606D02*
X97Y606D01*
X74Y605D02*
X97Y605D01*
X74Y604D02*
X97Y604D01*
X74Y603D02*
X97Y603D01*
X74Y602D02*
X97Y602D01*
X74Y601D02*
X97Y601D01*
X74Y600D02*
X97Y600D01*
X74Y599D02*
X97Y599D01*
X74Y598D02*
X97Y598D01*
X74Y597D02*
X97Y597D01*
X74Y596D02*
X97Y596D01*
X74Y595D02*
X97Y595D01*
X74Y594D02*
X97Y594D01*
X74Y593D02*
X97Y593D01*
X74Y592D02*
X97Y592D01*
X74Y591D02*
X97Y591D01*
X74Y590D02*
X188Y590D01*
X74Y589D02*
X190Y589D01*
X74Y588D02*
X192Y588D01*
X74Y587D02*
X193Y587D01*
X74Y586D02*
X194Y586D01*
X74Y585D02*
X195Y585D01*
X74Y584D02*
X195Y584D01*
X74Y583D02*
X196Y583D01*
X74Y582D02*
X196Y582D01*
X74Y581D02*
X196Y581D01*
X75Y580D02*
X197Y580D01*
X75Y579D02*
X197Y579D01*
X75Y578D02*
X197Y578D01*
X75Y577D02*
X197Y577D01*
X75Y576D02*
X197Y576D01*
X75Y575D02*
X196Y575D01*
X75Y574D02*
X196Y574D01*
X76Y573D02*
X195Y573D01*
X76Y572D02*
X195Y572D01*
X77Y571D02*
X194Y571D01*
X78Y570D02*
X193Y570D01*
X79Y569D02*
X192Y569D01*
X80Y568D02*
X191Y568D01*
X82Y567D02*
X189Y567D01*
D02*
G04 End of Copper1*
M02*