; NON-PLATED HOLES START AT T1
; THROUGH (PLATED) HOLES START AT T100
M48
INCH
T100C0.038000
T101C0.031496
T102C0.035000
T103C0.059055
T104C0.038795
%
T100
X001848Y001780
X001848Y000780
T101
X001848Y013780
X001848Y014780
T102
X001848Y010780
X001848Y009780
X001848Y008780
T103
X001848Y006780
X001848Y007780
X001848Y005780
T104
X003854Y014779
X012848Y000774
X012848Y015773
X003854Y003775
X012848Y007771
X003854Y013775
X003854Y012771
X003854Y018775
X003854Y008775
X003854Y005773
X012848Y017771
X003854Y002782
X012848Y013775
X003854Y007771
X012848Y003775
X003854Y015773
X003854Y000774
X012848Y014779
X012848Y002782
X003854Y017771
X012848Y005773
X012848Y008775
X012848Y018775
X012848Y012771
X003854Y004780
X003854Y011777
X003854Y009779
X003854Y001778
X012848Y016777
X012848Y010773
X012848Y006778
X012848Y001778
X012848Y009779
X012848Y011777
X012848Y004780
X003854Y006778
X003854Y010773
X003854Y016777
T00
M30
