; NON-PLATED HOLES START AT T1
; THROUGH (PLATED) HOLES START AT T100
M48
INCH
T1C0.078740
T100C0.043307
T101C0.038000
T102C0.035000
T103C0.038795
T104C0.031496
%
T1
X014973Y000732
X000803Y000732
X014973Y022922
X000803Y022922
T100
X002382Y008363
X002382Y007363
X002382Y006363
T101
X002382Y001363
X002382Y002363
T102
X001382Y011363
X001382Y012363
X001382Y010363
T103
X013376Y001357
X004382Y014359
X004382Y015363
X004382Y019358
X004382Y005363
X004382Y009359
X013376Y010363
X004382Y003365
X004382Y012361
X004382Y002361
X004382Y004359
X013376Y015363
X013376Y019358
X013376Y005363
X004382Y001357
X013376Y014359
X013376Y004359
X013376Y002361
X004382Y010363
X013376Y003365
X013376Y012361
X013376Y009359
X004382Y007361
X013376Y008355
X013376Y018354
X004382Y017361
X013376Y006357
X013376Y016356
X004382Y011357
X004382Y013355
X013376Y017361
X004382Y018354
X004382Y008355
X013376Y007361
X013376Y013355
X013376Y011357
X004382Y006357
X004382Y016356
T104
X002382Y015363
X002382Y014363
T00
M30
