G04 MADE WITH FRITZING*
G04 WWW.FRITZING.ORG*
G04 DOUBLE SIDED*
G04 HOLES PLATED*
G04 CONTOUR ON CENTER OF CONTOUR VECTOR*
%ASAXBY*%
%FSLAX23Y23*%
%MOIN*%
%OFA0B0*%
%SFA1.0B1.0*%
%ADD10C,0.083307*%
%ADD11C,0.078000*%
%ADD12C,0.071858*%
%ADD13C,0.051496*%
%ADD14C,0.075000*%
%LNCOPPER0*%
G90*
G70*
G54D10*
X238Y836D03*
X238Y736D03*
X238Y636D03*
G54D11*
X238Y236D03*
X238Y136D03*
G54D12*
X438Y1936D03*
X438Y1835D03*
X438Y1736D03*
X438Y1636D03*
X438Y1536D03*
X438Y1436D03*
X438Y1336D03*
X438Y1236D03*
X438Y1136D03*
X438Y1036D03*
X438Y936D03*
X438Y836D03*
X438Y736D03*
X438Y636D03*
X438Y536D03*
X438Y436D03*
X438Y337D03*
X438Y236D03*
X438Y136D03*
X1338Y136D03*
X1338Y236D03*
X1338Y337D03*
X1338Y436D03*
X1338Y536D03*
X1338Y636D03*
X1338Y736D03*
X1338Y836D03*
X1338Y936D03*
X1338Y1036D03*
X1338Y1136D03*
X1338Y1236D03*
X1338Y1336D03*
X1338Y1436D03*
X1338Y1536D03*
X1338Y1636D03*
X1338Y1736D03*
X1338Y1835D03*
X1338Y1936D03*
G54D13*
X238Y1536D03*
X238Y1436D03*
G54D14*
X138Y1236D03*
X138Y1136D03*
X138Y1036D03*
G04 End of Copper0*
M02*